<svg xmlns="http://www.w3.org/2000/svg" viewBox="0 0 87.26 21.2"><defs><style>.cls-1{fill:#000000;}.cls-2{fill:#000000;}</style></defs><g id="Layer_2" data-name="Layer 2"><g id="Layer_1-2" data-name="Layer 1"><path class="cls-1" d="M32.77,14.93H28.46L27.74,17H25.46l3.9-10.86h2.53L35.79,17h-2.3Zm-.59-1.74L30.61,8.66l-1.56,4.53Z"/><path class="cls-1" d="M39.11,5.5V17H36.94V5.5Z"/><path class="cls-1" d="M49.07,8.39V17H46.88V15.91a2.87,2.87,0,0,1-1.09.88,3.47,3.47,0,0,1-1.47.32,3.59,3.59,0,0,1-1.79-.43,3,3,0,0,1-1.22-1.26,4.19,4.19,0,0,1-.44-2v-5H43v4.74a2.21,2.21,0,0,0,.52,1.58,1.79,1.79,0,0,0,1.39.55,1.82,1.82,0,0,0,1.42-.55,2.26,2.26,0,0,0,.51-1.58V8.39Z"/><path class="cls-1" d="M54.85,10.18H53.34V17h-2.2V10.18h-1V8.39h1V8A2.84,2.84,0,0,1,52,5.63a4,4,0,0,1,2.72-.7V6.76A1.62,1.62,0,0,0,53.65,7a1.33,1.33,0,0,0-.31,1v.36h1.51Z"/><path class="cls-2" d="M56,16.74a1.17,1.17,0,0,1-.38-.91,1.2,1.2,0,0,1,.38-.91,1.34,1.34,0,0,1,1-.36,1.28,1.28,0,0,1,.94.36,1.24,1.24,0,0,1,.38.91,1.21,1.21,0,0,1-.38.91,1.25,1.25,0,0,1-.94.37A1.3,1.3,0,0,1,56,16.74Z"/><path class="cls-2" d="M59.64,10.35A3.81,3.81,0,0,1,61.06,8.8a3.77,3.77,0,0,1,2-.55,3.58,3.58,0,0,1,1.6.37,3.08,3.08,0,0,1,1.21,1V5.5h2.21V17H65.88V15.73a3,3,0,0,1-1.13,1,3.55,3.55,0,0,1-1.7.39,3.76,3.76,0,0,1-2-.56A3.9,3.9,0,0,1,59.64,15a5.14,5.14,0,0,1-.52-2.34A5,5,0,0,1,59.64,10.35Zm6,1a2.25,2.25,0,0,0-3.1-.88,2.29,2.29,0,0,0-.83.86,2.74,2.74,0,0,0-.32,1.34A2.79,2.79,0,0,0,61.66,14a2.44,2.44,0,0,0,.84.9,2.23,2.23,0,0,0,3.09-.87,3.12,3.12,0,0,0,0-2.71Z"/><path class="cls-2" d="M77.84,13.35H71.55a2.14,2.14,0,0,0,.65,1.46,2,2,0,0,0,1.42.53,1.77,1.77,0,0,0,1.72-1h2.35a4,4,0,0,1-1.43,2,4.21,4.21,0,0,1-2.6.8,4.43,4.43,0,0,1-2.22-.55A3.85,3.85,0,0,1,69.9,15a4.78,4.78,0,0,1-.55-2.33,4.88,4.88,0,0,1,.54-2.35A3.78,3.78,0,0,1,71.41,8.8a4.85,4.85,0,0,1,4.45,0,3.7,3.7,0,0,1,1.51,1.5,4.52,4.52,0,0,1,.54,2.23A4.32,4.32,0,0,1,77.84,13.35Zm-2.19-1.46a1.75,1.75,0,0,0-.6-1.35A2.2,2.2,0,0,0,73.6,10a2,2,0,0,0-1.36.49,2.16,2.16,0,0,0-.67,1.36Z"/><path class="cls-2" d="M82.77,15l2.17-6.6h2.32L84.07,17H81.43L78.26,8.39h2.33Z"/><path class="cls-1" d="M8.88,16.79h3.28a.25.25,0,0,0,0-.5H8.89a5.73,5.73,0,0,1-2.8-3.52A14.55,14.55,0,0,1,5.9,6.84c0-.25.06-.48.08-.68a.25.25,0,0,0-.22-.28.26.26,0,0,0-.28.22c0,.21-.05.43-.08.68a14.91,14.91,0,0,0,.21,6.14C6.28,15.13,8.16,16.77,8.88,16.79Z"/><path class="cls-1" d="M9.25,15.32H12a2.27,2.27,0,0,0,1.31-.93c.8-1,2-3.38,1-8.31a.27.27,0,0,0-.22-.18l-6.88,0a.27.27,0,0,0-.3.2c-1,4.93.24,7.32,1,8.31A2.21,2.21,0,0,0,9.25,15.32ZM7.07,8.93h7.06c0,.27,0,.52,0,.76H7.06C7.06,9.45,7.06,9.2,7.07,8.93Zm7-1.27c0,.27.05.51.06.77h-7c0-.26,0-.5.07-.77Zm-6.79-.5c0-.25.07-.5.12-.77h6.48c0,.27.08.52.11.77Zm6.88,3c0,.28,0,.53-.08.77H7.16c0-.24-.06-.49-.08-.77ZM14,11.46a7.29,7.29,0,0,1-.18.77H7.41c-.07-.24-.13-.49-.19-.77Zm-.36,1.27a6.25,6.25,0,0,1-.35.77H7.94a6.25,6.25,0,0,1-.35-.77Zm-1.68,2.09H9.26a2.18,2.18,0,0,1-1-.81h4.65A2.08,2.08,0,0,1,11.93,14.82Z"/><path class="cls-1" d="M10.6,1.36a9.24,9.24,0,1,0,9.24,9.24A9.24,9.24,0,0,0,10.6,1.36Zm0,.5a8.69,8.69,0,0,1,8.48,10.8h0a1.11,1.11,0,0,1-.91.19A2.25,2.25,0,0,1,17,12.17h0a17.58,17.58,0,0,0,.15-4.48c0-.09,0-.19,0-.29l.34.64a15.72,15.72,0,0,0,1.16,2.05.25.25,0,0,0,.35.05.26.26,0,0,0,0-.36,17.33,17.33,0,0,1-1.11-2c-.68-1.31-.77-1.45-1-1.42s-.31.4-.25,1.34a14.79,14.79,0,0,1-.45,5.58,8,8,0,0,1-3.39,4.42H8.43A8,8,0,0,1,5,13.3a14.59,14.59,0,0,1-.45-5.58c.06-.94.08-1.29-.26-1.34s-.32.11-1,1.42a17.18,17.18,0,0,1-1.12,2,.27.27,0,0,0,0,.36.25.25,0,0,0,.35-.05A15.72,15.72,0,0,0,3.77,8l.34-.64c0,.1,0,.2,0,.29a17.58,17.58,0,0,0,.15,4.48h0a2.29,2.29,0,0,1-1.17.69,1.09,1.09,0,0,1-.9-.19H2.11A8.73,8.73,0,0,1,10.6,1.86Zm0,17.48a8.75,8.75,0,0,1-8.31-6,1.7,1.7,0,0,0,.51.08l.36,0a2.83,2.83,0,0,0,1.2-.61c.06.23.12.47.2.71a8.46,8.46,0,0,0,3.68,4.74.24.24,0,0,0,.12,0h4.48a.27.27,0,0,0,.12,0,8.5,8.5,0,0,0,3.68-4.74c.07-.24.14-.48.2-.71a2.77,2.77,0,0,0,1.2.61l.35,0a1.82,1.82,0,0,0,.52-.08A8.75,8.75,0,0,1,10.6,19.34Z"/><path class="cls-1" d="M10.6,0A10.6,10.6,0,1,0,21.2,10.6,10.61,10.61,0,0,0,10.6,0Zm0,20.7A10.1,10.1,0,1,1,20.7,10.6,10.11,10.11,0,0,1,10.6,20.7Z"/><path class="cls-1" d="M10.71,2.9l.16.49a.12.12,0,0,0,.11.08h.51a.11.11,0,0,1,.07.2L11.14,4a.12.12,0,0,0,0,.13l.16.48a.12.12,0,0,1-.18.13l-.41-.3a.12.12,0,0,0-.14,0l-.41.3a.12.12,0,0,1-.18-.13l.16-.48a.13.13,0,0,0,0-.13l-.41-.31a.11.11,0,0,1,.07-.2h.51a.13.13,0,0,0,.11-.08l.16-.49A.11.11,0,0,1,10.71,2.9Z"/></g></g></svg>