<svg width="144" height="223" viewBox="0 0 144 223" fill="none" xmlns="http://www.w3.org/2000/svg">
<path opacity="0.06" d="M72 144C111.764 144 144 111.764 144 72C144 32.2355 111.764 0 72 0C32.2355 0 0 32.2355 0 72C0 111.764 32.2355 144 72 144Z" fill="#EBB28A"/>
<path opacity="0.11" d="M72 124.648C101.077 124.648 124.648 101.077 124.648 72C124.648 42.9232 101.077 19.3518 72 19.3518C42.9232 19.3518 19.3518 42.9232 19.3518 72C19.3518 101.077 42.9232 124.648 72 124.648Z" fill="#EBB28A"/>
<path opacity="0.16" d="M72 105.866C90.7036 105.866 105.866 90.7036 105.866 72C105.866 53.2964 90.7036 38.1342 72 38.1342C53.2964 38.1342 38.1342 53.2964 38.1342 72C38.1342 90.7036 53.2964 105.866 72 105.866Z" fill="#EBB28A"/>
<path opacity="0.94" d="M47.2345 31.5222C45.9803 31.5216 44.7766 31.0281 43.8829 30.1482C42.9893 29.2683 42.4772 28.0724 42.4572 26.8184C42.4371 25.5644 42.9107 24.3527 43.7758 23.4447C44.6409 22.5366 45.8282 22.005 47.0817 21.9643C48.3352 21.9236 49.5545 22.3772 50.4767 23.2273C51.3988 24.0773 51.9499 25.2557 52.0112 26.5084C52.0725 27.7611 51.639 28.9877 50.8043 29.9237C49.9695 30.8597 48.8003 31.4301 47.5489 31.512C47.4433 31.5186 47.3401 31.5222 47.2345 31.5222ZM47.2459 23.5536C47.1757 23.5536 47.1055 23.5536 47.0353 23.5602C46.2971 23.6078 45.5982 23.91 45.0578 24.4151C44.5174 24.9202 44.1689 25.5971 44.0716 26.3304C43.9743 27.0637 44.1343 27.8081 44.5243 28.4367C44.9142 29.0652 45.5101 29.5391 46.2103 29.7776C46.9106 30.0161 47.6718 30.0044 48.3644 29.7446C49.057 29.4847 49.6381 28.9927 50.0086 28.3525C50.3791 27.7122 50.5162 26.9633 50.3964 26.2334C50.2767 25.5034 49.9075 24.8375 49.3519 24.3492C48.7706 23.8356 48.0215 23.5526 47.2459 23.5536Z" fill="#652875"/>
<path opacity="0.77" d="M127.778 64.9265C126.891 64.9265 126.023 64.6634 125.286 64.1703C124.548 63.6773 123.973 62.9765 123.633 62.1566C123.294 61.3368 123.205 60.4346 123.378 59.5642C123.551 58.6939 123.978 57.8944 124.606 57.2669C125.234 56.6395 126.033 56.2122 126.903 56.0391C127.774 55.8661 128.676 55.955 129.496 56.2947C130.316 56.6344 131.016 57.2096 131.509 57.9475C132.002 58.6854 132.265 59.5529 132.265 60.4404C132.264 61.6299 131.791 62.7703 130.95 63.6114C130.108 64.4524 128.968 64.9254 127.778 64.9265ZM127.778 57.5274C127.202 57.5274 126.639 57.6982 126.16 58.0183C125.681 58.3384 125.308 58.7933 125.087 59.3256C124.867 59.8579 124.809 60.4436 124.921 61.0087C125.034 61.5737 125.311 62.0928 125.719 62.5002C126.126 62.9075 126.645 63.185 127.21 63.2974C127.775 63.4098 128.361 63.3521 128.893 63.1316C129.425 62.9111 129.88 62.5378 130.2 62.0587C130.521 61.5797 130.691 61.0165 130.691 60.4404C130.691 59.668 130.383 58.9276 129.837 58.3815C129.291 57.8353 128.551 57.5282 127.778 57.5274Z" fill="#652875"/>
<path opacity="0.65" d="M100.743 30.9527C100.137 30.9527 99.5448 30.7731 99.041 30.4364C98.5372 30.0998 98.1445 29.6213 97.9126 29.0615C97.6808 28.5017 97.6201 27.8858 97.7383 27.2915C97.8565 26.6972 98.1483 26.1513 98.5767 25.7229C99.0052 25.2944 99.5511 25.0026 100.145 24.8844C100.74 24.7662 101.356 24.8269 101.915 25.0588C102.475 25.2906 102.954 25.6833 103.29 26.1871C103.627 26.6909 103.807 27.2832 103.807 27.8892C103.806 28.7014 103.483 29.4801 102.908 30.0544C102.334 30.6287 101.555 30.9518 100.743 30.9527ZM100.743 26.3994C100.448 26.3994 100.16 26.4867 99.9153 26.6504C99.6703 26.8141 99.4794 27.0468 99.3666 27.319C99.2539 27.5913 99.2244 27.8908 99.2819 28.1798C99.3393 28.4688 99.4812 28.7342 99.6896 28.9426C99.8979 29.1509 100.163 29.2928 100.452 29.3503C100.741 29.4078 101.041 29.3783 101.313 29.2655C101.585 29.1528 101.818 28.9618 101.982 28.7168C102.145 28.4718 102.233 28.1838 102.233 27.8892C102.232 27.4943 102.075 27.1158 101.796 26.8366C101.516 26.5575 101.138 26.4004 100.743 26.4V26.3994Z" fill="#652875"/>
<path opacity="0.88" d="M56.1234 115.46C55.5175 115.46 54.9252 115.28 54.4214 114.943C53.9176 114.607 53.5249 114.128 53.293 113.569C53.0611 113.009 53.0005 112.393 53.1187 111.799C53.2369 111.204 53.5287 110.658 53.9571 110.23C54.3856 109.801 54.9315 109.51 55.5257 109.392C56.12 109.273 56.736 109.334 57.2958 109.566C57.8556 109.798 58.3341 110.19 58.6707 110.694C59.0073 111.198 59.187 111.79 59.187 112.396C59.186 113.208 58.863 113.987 58.2886 114.561C57.7143 115.136 56.9356 115.459 56.1234 115.46ZM56.1234 110.906C55.8288 110.906 55.5407 110.994 55.2957 111.158C55.0507 111.321 54.8598 111.554 54.747 111.826C54.6343 112.098 54.6048 112.398 54.6622 112.687C54.7197 112.976 54.8616 113.241 55.07 113.45C55.2783 113.658 55.5438 113.8 55.8328 113.857C56.1218 113.915 56.4213 113.885 56.6935 113.773C56.9658 113.66 57.1984 113.469 57.3621 113.224C57.5258 112.979 57.6132 112.691 57.6132 112.396C57.6127 112.001 57.4556 111.623 57.1763 111.343C56.897 111.064 56.5184 110.907 56.1234 110.906Z" fill="#652875"/>
<path opacity="0.56" d="M19.6146 86.6447C18.4989 86.6465 17.4035 86.3469 16.444 85.7775C15.4845 85.2082 14.6966 84.3903 14.1635 83.4103C13.6303 82.4302 13.3718 81.3243 13.4152 80.2095C13.4586 79.0947 13.8023 78.0122 14.4099 77.0766C15.0176 76.1409 15.8667 75.3867 16.8675 74.8937C17.8684 74.4006 18.9838 74.187 20.0959 74.2755C21.2081 74.3639 22.2758 74.7511 23.1861 75.3961C24.0964 76.0411 24.8157 76.92 25.2678 77.94C25.6856 78.8822 25.8616 79.9138 25.7799 80.9413C25.6982 81.9687 25.3614 82.9596 24.8 83.824C24.2386 84.6884 23.4703 85.399 22.5648 85.8915C21.6594 86.3839 20.6453 86.6426 19.6146 86.6441V86.6447ZM19.599 75.8304C18.6033 75.8318 17.6348 76.155 16.8376 76.7516C16.0404 77.3482 15.4574 78.1864 15.1752 79.1413C14.8931 80.0961 14.927 81.1166 15.2719 82.0507C15.6168 82.9847 16.2542 83.7823 17.0892 84.3247C17.9243 84.8671 18.9121 85.1252 19.9057 85.0606C20.8993 84.996 21.8455 84.6121 22.6032 83.9661C23.3609 83.3201 23.8896 82.4466 24.1106 81.4758C24.3316 80.5049 24.2331 79.4886 23.8296 78.5784C23.4658 77.7602 22.8725 77.0651 22.1216 76.5773C21.3707 76.0896 20.4944 75.8301 19.599 75.8304Z" fill="#652875"/>
<path d="M90.1267 107.139H53.8735C52.4671 107.139 51.3043 105.931 51.2233 104.384L47.0593 73.5822C46.9609 71.7996 48.3103 70.2972 50.0095 70.2972H93.9895C95.6887 70.2972 97.0381 71.7972 96.9397 73.5822L92.7757 104.384C92.6959 105.931 91.5331 107.139 90.1267 107.139Z" fill="white"/>
<path d="M90.1266 108.319H53.8734C51.8562 108.319 50.1852 106.645 50.0478 104.497L45.8808 73.647C45.8469 73.0546 45.9337 72.4615 46.1359 71.9037C46.338 71.3458 46.6513 70.8348 47.0568 70.4016C47.4346 69.9967 47.8917 69.674 48.3997 69.4535C48.9077 69.233 49.4556 69.1195 50.0094 69.12H93.9894C94.5434 69.1199 95.0915 69.2339 95.5995 69.4549C96.1074 69.6759 96.5645 69.9992 96.942 70.4046C97.3475 70.8378 97.6608 71.3488 97.8629 71.9067C98.0651 72.4645 98.1519 73.0576 98.118 73.65L98.1096 73.7436L93.951 104.5C93.8148 106.645 92.1438 108.319 90.1266 108.319ZM48.2358 73.476L52.4022 104.322C52.4502 105.24 53.0964 105.959 53.8734 105.959H90.1266C90.9066 105.959 91.5498 105.239 91.5978 104.322L91.6074 104.225L95.7642 73.476C95.7752 73.2106 95.7336 72.9457 95.6417 72.6965C95.5499 72.4473 95.4096 72.2188 95.229 72.024C95.0711 71.8529 94.8796 71.7162 94.6666 71.6222C94.4535 71.5283 94.2234 71.4792 93.9906 71.478H50.0106C49.7778 71.4792 49.5477 71.5283 49.3346 71.6222C49.1216 71.7162 48.9301 71.8529 48.7722 72.024C48.5914 72.2187 48.4509 72.4472 48.3589 72.6964C48.2668 72.9456 48.225 73.2105 48.2358 73.476Z" fill="#652875"/>
<path opacity="0.09" d="M56.892 106.706C56.892 106.706 52.1832 79.0393 52.968 78.6067C53.7528 78.1741 95.937 78.3907 95.937 78.3907C96.7218 77.5261 96.9066 74.0707 96.9066 74.0707L47.082 74.7163L51.6828 105.865L53.7528 106.705L56.892 106.706Z" fill="#652875"/>
<path d="M76.3157 93.876C76.1542 93.8763 75.9965 93.8264 75.8645 93.7332C72.0653 91.0698 68.5907 93.6864 68.5565 93.7122C68.4752 93.7803 68.381 93.8313 68.2794 93.862C68.1779 93.8928 68.0712 93.9027 67.9658 93.8912C67.8603 93.8797 67.7583 93.847 67.6658 93.7951C67.5733 93.7432 67.4922 93.6731 67.4275 93.5891C67.3628 93.505 67.3157 93.4088 67.2891 93.3061C67.2625 93.2034 67.2569 93.0964 67.2727 92.9915C67.2885 92.8866 67.3253 92.786 67.381 92.6957C67.4366 92.6054 67.5099 92.5272 67.5965 92.466C67.6403 92.433 72.0365 89.1252 76.7693 92.445C76.9065 92.541 77.0094 92.6782 77.0632 92.8368C77.1169 92.9953 77.1187 93.1669 77.0682 93.3265C77.0178 93.4861 76.9177 93.6255 76.7826 93.7243C76.6475 93.8231 76.4843 93.8763 76.3169 93.876H76.3157Z" fill="#652875"/>
<path d="M90.1266 108.319H53.8734C51.8562 108.319 50.1852 106.645 50.0478 104.497L45.8808 73.647C45.8469 73.0546 45.9337 72.4615 46.1359 71.9037C46.338 71.3458 46.6513 70.8348 47.0568 70.4016C47.4346 69.9967 47.8917 69.674 48.3997 69.4535C48.9077 69.233 49.4556 69.1195 50.0094 69.12H93.9894C94.5434 69.1199 95.0915 69.2339 95.5995 69.4549C96.1074 69.6759 96.5645 69.9992 96.942 70.4046C97.3475 70.8378 97.6608 71.3488 97.8629 71.9067C98.0651 72.4645 98.1519 73.0576 98.118 73.65L98.1096 73.7436L93.951 104.5C93.8148 106.645 92.1438 108.319 90.1266 108.319ZM48.2358 73.476L52.4022 104.322C52.4502 105.24 53.0964 105.959 53.8734 105.959H90.1266C90.9066 105.959 91.5498 105.239 91.5978 104.322L91.6074 104.225L95.7642 73.476C95.7752 73.2106 95.7336 72.9457 95.6417 72.6965C95.5499 72.4473 95.4096 72.2188 95.229 72.024C95.0711 71.8529 94.8796 71.7162 94.6666 71.6222C94.4535 71.5283 94.2234 71.4792 93.9906 71.478H50.0106C49.7778 71.4792 49.5477 71.5283 49.3346 71.6222C49.1216 71.7162 48.9301 71.8529 48.7722 72.024C48.5914 72.2187 48.4509 72.4472 48.3589 72.6964C48.2668 72.9456 48.225 73.2105 48.2358 73.476Z" fill="#652875"/>
<path d="M48.4656 74.0676H97.5545C99.3155 74.0676 100.743 72.4681 100.743 70.4946V65.7546C100.743 63.7812 99.3155 62.1816 97.5545 62.1816H48.0798" fill="#EBB28A"/>
<path d="M49.044 62.1792H46.4454C44.6844 62.1792 43.257 63.7788 43.257 65.7522V70.4921C43.257 72.4655 44.6844 74.0651 46.4454 74.0651H50.973" fill="#D99464"/>
<path d="M97.5546 60.9989H46.4455C44.0365 60.9989 42.0763 63.1313 42.0763 65.7515V70.4945C42.0763 73.116 44.0365 75.2478 46.4455 75.2478H97.5546C99.9636 75.2478 101.924 73.116 101.924 70.4945V65.7515C101.924 63.1313 99.9636 60.9989 97.5546 60.9989ZM99.5634 70.4945C99.5634 71.8145 98.6634 72.8874 97.5546 72.8874H46.4455C45.3385 72.8874 44.4367 71.8139 44.4367 70.4945V65.7515C44.4367 64.4315 45.3367 63.3599 46.4455 63.3599H97.5546C98.6616 63.3599 99.5634 64.4321 99.5634 65.7515V70.4945Z" fill="#652875"/>
<path d="M53.9454 69.0636C54.6661 69.0636 55.2504 68.4976 55.2504 67.7994C55.2504 67.1012 54.6661 66.5352 53.9454 66.5352C53.2246 66.5352 52.6404 67.1012 52.6404 67.7994C52.6404 68.4976 53.2246 69.0636 53.9454 69.0636Z" fill="#652875"/>
<path d="M89.8913 68.7708C90.5822 68.7708 91.1423 68.287 91.1423 67.6902C91.1423 67.0934 90.5822 66.6096 89.8913 66.6096C89.2004 66.6096 88.6404 67.0934 88.6404 67.6902C88.6404 68.287 89.2004 68.7708 89.8913 68.7708Z" fill="#652875"/>
<path d="M52.7604 67.902C52.7004 67.2252 52.671 66.5358 52.671 65.8542C52.671 54.2376 61.2978 44.7876 71.9022 44.7876C82.5066 44.7876 91.1328 54.2376 91.1328 65.8542C91.1328 66.4608 91.1094 67.0728 91.0626 67.6734L88.7088 67.4887C88.7508 66.9487 88.7724 66.399 88.7724 65.8542C88.7724 55.5396 81.2046 47.148 71.9022 47.148C62.5998 47.148 55.0314 55.5396 55.0314 65.8542C55.0314 66.4674 55.0584 67.0872 55.1118 67.6962L52.7604 67.902Z" fill="#652875"/>
<path d="M63.8928 87.486C64.707 87.486 65.367 86.826 65.367 86.0118C65.367 85.1976 64.707 84.5376 63.8928 84.5376C63.0786 84.5376 62.4186 85.1976 62.4186 86.0118C62.4186 86.826 63.0786 87.486 63.8928 87.486Z" fill="#652875"/>
<path d="M80.1073 87.486C80.9214 87.486 81.5815 86.826 81.5815 86.0118C81.5815 85.1976 80.9214 84.5376 80.1073 84.5376C79.2931 84.5376 78.6331 85.1976 78.6331 86.0118C78.6331 86.826 79.2931 87.486 80.1073 87.486Z" fill="#652875"/>
<path opacity="0.76" d="M106.435 106.652H100.743C100.538 106.647 100.343 106.561 100.2 106.414C100.058 106.267 99.9775 106.071 99.9775 105.865C99.9775 105.66 100.058 105.464 100.2 105.317C100.343 105.17 100.538 105.084 100.743 105.079H106.435C106.54 105.076 106.644 105.094 106.742 105.132C106.84 105.17 106.93 105.228 107.005 105.301C107.081 105.375 107.141 105.462 107.182 105.559C107.222 105.656 107.244 105.76 107.244 105.865C107.244 105.971 107.222 106.075 107.182 106.172C107.141 106.269 107.081 106.356 107.005 106.43C106.93 106.503 106.84 106.561 106.742 106.599C106.644 106.637 106.54 106.655 106.435 106.652Z" fill="#652875"/>
<path opacity="0.76" d="M103.589 109.5C103.38 109.5 103.18 109.417 103.032 109.27C102.885 109.122 102.802 108.922 102.802 108.713V103.02C102.799 102.915 102.817 102.81 102.855 102.712C102.893 102.614 102.951 102.525 103.024 102.449C103.098 102.374 103.185 102.314 103.282 102.273C103.379 102.232 103.483 102.211 103.588 102.211C103.694 102.211 103.798 102.232 103.895 102.273C103.992 102.314 104.079 102.374 104.153 102.449C104.226 102.525 104.284 102.614 104.322 102.712C104.36 102.81 104.378 102.915 104.375 103.02V108.712C104.376 108.815 104.355 108.918 104.316 109.013C104.277 109.109 104.219 109.196 104.146 109.269C104.073 109.342 103.986 109.4 103.89 109.44C103.795 109.48 103.692 109.5 103.589 109.5Z" fill="#652875"/>
<path opacity="0.31" d="M34.7196 49.1665H31.3044C31.0995 49.1608 30.9048 49.0754 30.7619 48.9284C30.6189 48.7815 30.5389 48.5846 30.5389 48.3796C30.5389 48.1745 30.6189 47.9776 30.7619 47.8307C30.9048 47.6837 31.0995 47.5983 31.3044 47.5927H34.7196C34.9245 47.5983 35.1192 47.6837 35.2621 47.8307C35.4051 47.9776 35.4851 48.1745 35.4851 48.3796C35.4851 48.5846 35.4051 48.7815 35.2621 48.9284C35.1192 49.0754 34.9245 49.1608 34.7196 49.1665Z" fill="#652875"/>
<path opacity="0.31" d="M33.0121 50.8739C32.8033 50.8739 32.603 50.791 32.4554 50.6434C32.3078 50.4957 32.2249 50.2955 32.2249 50.0867V46.6716C32.2305 46.4667 32.3159 46.272 32.4629 46.1291C32.6098 45.9861 32.8067 45.9061 33.0118 45.9061C33.2168 45.9061 33.4137 45.9861 33.5607 46.1291C33.7076 46.272 33.793 46.4667 33.7987 46.6716V50.0867C33.7987 50.1901 33.7784 50.2924 33.739 50.3879C33.6995 50.4834 33.6415 50.5702 33.5685 50.6433C33.4954 50.7164 33.4087 50.7744 33.3132 50.814C33.2177 50.8536 33.1154 50.8739 33.0121 50.8739Z" fill="#652875"/>
<path d="M48.0948 52.6902C47.9398 52.6903 47.7863 52.6598 47.6431 52.6005C47.4999 52.5412 47.3698 52.4542 47.2602 52.3445L40.7149 45.7985C40.4985 45.5762 40.3785 45.2776 40.3806 44.9674C40.3828 44.6571 40.507 44.3603 40.7264 44.1409C40.9458 43.9216 41.2428 43.7975 41.553 43.7954C41.8632 43.7934 42.1618 43.9135 42.384 44.1299L48.9294 50.6754C49.0945 50.8404 49.2069 51.0507 49.2525 51.2797C49.298 51.5086 49.2747 51.7459 49.1853 51.9616C49.096 52.1773 48.9447 52.3616 48.7506 52.4913C48.5565 52.621 48.3283 52.6902 48.0948 52.6902Z" fill="#652875"/>
<path d="M95.9052 52.9746C95.6718 52.9746 95.4436 52.9054 95.2494 52.7757C95.0553 52.646 94.904 52.4617 94.8147 52.246C94.7254 52.0303 94.702 51.793 94.7475 51.5641C94.7931 51.3351 94.9055 51.1248 95.0706 50.9598L101.616 44.4143C101.726 44.3047 101.856 44.2178 101.999 44.1585C102.142 44.0991 102.296 44.0686 102.451 44.0686C102.606 44.0686 102.759 44.0991 102.902 44.1585C103.046 44.2178 103.176 44.3047 103.285 44.4143C103.395 44.5239 103.482 44.654 103.541 44.7972C103.6 44.9404 103.631 45.0939 103.631 45.2489C103.631 45.4039 103.6 45.5574 103.541 45.7006C103.482 45.8438 103.395 45.9739 103.285 46.0835L96.7398 52.629C96.6303 52.7386 96.5002 52.8256 96.3569 52.8849C96.2137 52.9442 96.0602 52.9747 95.9052 52.9746Z" fill="#652875"/>
<path d="M71.715 42.1608C71.402 42.1606 71.1018 42.0361 70.8805 41.8147C70.6592 41.5933 70.5348 41.293 70.5348 40.98V30.1662C70.5313 30.0089 70.5592 29.8525 70.6169 29.7062C70.6747 29.5598 70.7611 29.4265 70.871 29.3141C70.981 29.2016 71.1123 29.1122 71.2573 29.0512C71.4023 28.9902 71.558 28.9587 71.7153 28.9587C71.8726 28.9587 72.0284 28.9902 72.1733 29.0512C72.3183 29.1122 72.4497 29.2016 72.5596 29.3141C72.6696 29.4265 72.756 29.5598 72.8137 29.7062C72.8715 29.8525 72.8994 30.0089 72.8958 30.1662V40.98C72.8958 41.2931 72.7714 41.5935 72.55 41.8149C72.3285 42.0363 72.0282 42.1608 71.715 42.1608Z" fill="#652875"/>
<path d="M23.869 161.291C22.1329 160.509 20.3235 160.069 18.3918 160.215C17.805 160.24 17.2181 160.338 16.6313 160.46C15.7266 160.607 14.8952 160.949 14.1128 161.389C13.3059 161.829 12.5968 162.392 11.961 163.027C11.2519 163.761 10.6651 164.617 10.2739 165.546C9.83373 166.622 9.51586 167.698 9.56477 168.847C9.56477 169.336 9.61367 169.825 9.66257 170.289C9.73593 171.267 10.0538 172.172 10.4939 173.004C11.6921 175.204 13.477 176.745 15.9222 177.454C16.8269 177.723 17.7316 177.918 18.6363 177.967C19.6144 178.041 20.568 177.967 21.5461 177.747C23.1599 177.429 24.5536 176.696 25.7762 175.644C26.0207 175.449 26.2652 175.229 26.4119 174.935C25.874 174.177 25.1893 173.615 24.6025 172.979C24.4313 172.808 24.2602 172.832 24.1135 172.979C23.869 173.199 23.6489 173.444 23.3799 173.639C22.2063 174.544 20.837 174.911 19.3699 174.96C18.3918 174.984 17.4382 174.788 16.509 174.446C15.2131 173.957 14.1861 173.15 13.4526 171.952C12.8657 171.023 12.6457 169.996 12.6212 168.92C12.6212 167.966 12.9146 167.062 13.3792 166.206C13.6726 165.692 14.0394 165.228 14.504 164.812C15.7999 163.712 17.3159 163.223 18.9786 163.247C19.541 163.247 20.1034 163.321 20.6413 163.418C21.9862 163.639 23.1354 164.201 24.0646 165.228C24.1868 165.35 24.3091 165.497 24.4313 165.644C24.5781 165.79 24.7737 165.815 24.9448 165.668C25.5806 165.155 26.2163 164.617 26.8765 164.103C26.9254 164.054 26.9499 163.981 27.0232 163.883C26.1919 162.709 25.116 161.854 23.869 161.291ZM40.0424 166.255C40.0424 166.206 39.9935 166.133 39.9201 166.133C39.6022 166.133 38.3552 166.133 38.0373 166.133C37.6461 166.133 37.3038 166.133 37.1815 166.133L37.1326 167.453C36.8148 166.94 35.6166 165.766 33.4649 165.766C33.1226 165.766 32.7802 165.815 32.4379 165.864C31.6799 166.01 31.0686 166.23 30.4084 166.646C29.1859 167.453 28.3789 168.431 27.8899 169.825C27.4987 170.901 27.4009 172.025 27.6454 173.15C27.8166 174.006 28.1833 174.862 28.6968 175.571C29.1614 176.182 29.6993 176.72 30.3595 177.111C31.0931 177.503 31.8022 177.82 32.6335 177.918C33.0492 177.967 33.1715 178.016 33.5627 178.016C35.152 178.016 36.3502 177.283 37.0837 176.329C37.1082 176.378 37.0593 177.503 37.1082 177.625C37.9395 177.625 39.1866 177.649 40.0424 177.649C40.0424 176.94 40.0179 167.82 40.0424 166.255ZM36.9859 173.052C36.4235 174.74 35.1276 175.473 33.5871 175.473C32.6824 175.473 32.1445 174.935 31.4599 174.471C30.7997 173.59 30.4573 172.686 30.5307 171.488C30.6285 170.974 30.8486 170.338 31.1175 169.923C32.1445 168.382 34.1251 168.26 35.4455 169.042C36.0079 169.385 36.6925 169.825 37.0104 171.316C37.1571 171.83 37.1571 172.563 36.9859 173.052ZM49.942 166.353C49.942 165.961 49.942 165.913 49.6242 165.839C49.3552 165.79 48.9151 165.741 48.6461 165.766C48.1571 165.815 48.1571 165.888 47.668 165.986C46.7144 166.206 45.663 167.624 45.4429 168.284V166.108H42.4598V177.625H45.4429V170.925C45.5407 169.972 46.1276 169.042 47.1301 168.773C47.7169 168.602 47.8147 168.456 48.4016 168.578C48.8172 168.676 49.3063 168.724 49.722 168.969C49.7953 168.993 49.8442 168.945 49.8687 168.896C49.8931 168.773 49.8931 168.676 49.9176 168.529C49.942 167.795 49.942 167.16 49.942 166.426C49.942 166.402 49.942 166.377 49.942 166.353ZM57.4277 165.741L56.5718 165.79H55.3493V161.951C55.3493 161.805 55.227 161.731 55.1048 161.756L52.5129 162.416C52.4151 162.44 52.3417 162.514 52.3417 162.612V165.766L50.8502 165.741C50.7279 165.741 50.6546 165.839 50.6546 165.961V167.795C50.6546 167.893 50.7279 167.991 50.8502 167.991H52.3417V177.625H55.3493V167.991H57.4277C57.5499 167.991 57.6477 167.893 57.6477 167.795V165.961C57.6477 165.839 57.5499 165.741 57.4277 165.741ZM79.0108 174.642C78.4729 174.446 77.9105 174.299 77.3725 174.104C77.0547 174.006 76.8346 174.055 76.5901 174.299C76.0032 175.082 75.2208 175.473 73.876 175.473C72.58 175.473 71.602 174.397 71.5041 174.275C71.1863 173.859 70.9418 173.297 70.8684 172.71C71.0151 172.661 71.1129 172.71 71.2352 172.71C71.553 172.686 71.8709 172.661 72.2132 172.661C74.6095 172.661 76.5412 172.661 78.9374 172.661C79.2309 172.661 79.5487 172.686 79.891 172.441C79.8421 171.708 79.8421 170.656 79.6221 169.972C78.9374 167.575 77.2992 166.328 74.7807 165.864C72.9223 165.546 71.1618 166.059 69.7192 167.282C68.7656 168.064 68.1787 169.091 67.812 170.24C67.5185 171.243 67.4696 172.246 67.7141 173.272C67.9342 174.128 68.2032 174.935 68.7411 175.669C69.4991 176.696 70.5994 177.356 71.7731 177.723C73.0446 178.138 74.585 178.089 75.8565 177.698C76.8101 177.405 77.886 176.745 78.5707 176.011C78.7907 175.791 79.0108 175.546 79.2064 175.278C79.402 175.009 79.3287 174.764 79.0108 174.642ZM70.9418 169.874C71.5775 168.945 72.58 168.358 73.827 168.407C75.6854 168.407 76.7612 169.996 76.7612 170.314C76.639 170.338 73.6314 170.338 73.118 170.363C72.9468 170.363 71.064 170.461 70.6972 170.363C70.7706 170.192 70.8684 169.947 70.9418 169.874ZM95.4574 165.766C93.6724 165.766 92.1319 166.964 91.7896 167.746C91.7652 167.771 91.7652 167.771 91.7652 167.795C91.0072 166.353 89.4423 165.766 87.9263 165.766C86.4103 165.766 85.1877 166.597 84.6497 167.306L84.5519 166.133H81.74V177.625H84.8209V171.292C84.8943 169.482 85.799 168.382 87.1438 168.382C88.4642 168.382 89.3689 169.189 89.3689 170.803C89.3689 170.852 89.3689 171.414 89.3689 171.488C89.3689 172.246 89.3689 172.197 89.3689 172.832C89.3689 173.224 89.3445 173.444 89.3445 173.884C89.3445 175.155 89.3445 176.011 89.3445 177.283C89.3445 177.38 89.32 177.503 89.3689 177.6C89.3689 177.625 89.3689 177.625 89.3689 177.625H92.352V171.17C92.4743 169.434 93.3545 168.382 94.6749 168.382C95.9953 168.382 96.8022 169.189 96.8022 170.803C96.8022 170.852 96.8022 171.414 96.8022 171.488C96.8022 172.246 96.8022 172.197 96.8022 172.832C96.8022 173.224 96.8022 173.444 96.7778 173.884C96.7778 175.155 96.7778 176.011 96.7778 177.283C96.7778 177.38 96.7533 177.503 96.8022 177.6C96.8022 177.625 96.8022 177.625 96.8022 177.625H99.7853V169.947C99.7853 166.94 97.6091 165.766 95.4574 165.766ZM114.433 170.632C114.261 169.776 113.895 168.92 113.381 168.211C112.917 167.6 112.379 167.062 111.718 166.695C110.985 166.279 110.276 165.986 109.444 165.864C109.029 165.815 108.907 165.766 108.515 165.766C106.926 165.766 105.679 166.499 104.945 167.453V166.133H102.06V173.101L102.109 176.133L102.06 180.681V183.2H104.945L104.896 181.879L104.945 180.241V176.378C105.312 176.891 106.51 178.016 108.613 178.016C108.955 178.016 109.298 177.992 109.64 177.918C110.398 177.772 111.009 177.552 111.67 177.136C112.892 176.329 113.699 175.351 114.188 173.957C114.579 172.881 114.677 171.756 114.433 170.632ZM111.547 172.294C111.449 172.808 111.229 173.444 110.96 173.859C109.933 175.4 107.953 175.522 106.633 174.74C106.07 174.422 105.385 173.982 105.068 172.49C104.921 171.952 104.921 171.219 105.092 170.73C105.654 169.042 106.95 168.309 108.491 168.309C109.396 168.309 109.933 168.847 110.618 169.311C111.278 170.192 111.621 171.096 111.547 172.294ZM122.043 165.741L121.187 165.79H119.965V161.951C119.965 161.805 119.842 161.731 119.72 161.756L117.128 162.416C117.03 162.44 116.957 162.514 116.957 162.612V165.766L115.465 165.741C115.343 165.741 115.27 165.839 115.27 165.961V167.795C115.27 167.893 115.343 167.991 115.465 167.991H116.957V177.625H119.965V167.991H122.043C122.165 167.991 122.263 167.893 122.263 167.795V165.961C122.263 165.839 122.165 165.741 122.043 165.741ZM131.984 166.133C131.568 167.135 129.832 171.439 129.441 172.392C129.392 172.514 129.367 172.637 129.27 172.759C129.172 172.661 126.238 166.402 126.14 166.133C126.14 166.133 123.939 166.133 123.475 166.133C122.668 166.133 122.619 166.133 122.619 166.133C122.961 166.891 127.265 175.669 127.533 176.329C127.558 176.378 127.509 176.525 127.387 176.794C126.971 177.723 126.555 178.676 126.14 179.63C125.626 180.828 125.088 182.026 124.575 183.2H127.998C128.463 182.075 128.927 180.95 129.392 179.801C130.223 177.845 131.03 175.864 131.861 173.908C132.864 171.561 133.891 169.238 134.893 166.915C134.942 166.817 135.162 166.255 135.187 166.133H131.984Z" fill="#652875"/>
<path d="M33.5841 198.882C33.4081 199.311 33.2321 199.751 33.0341 200.169C32.8361 200.642 32.6161 201.104 32.4071 201.566C32.3521 201.687 32.2971 201.808 32.2531 201.929C32.0331 202.49 31.7801 203.018 31.5601 203.568C31.3621 204.03 30.4601 206.065 30.5371 206.065C30.5701 206.065 31.4391 206.065 31.8021 206.065C31.9451 206.076 32.0111 205.999 32.0661 205.889C32.1321 205.713 32.1981 205.537 32.2641 205.361C32.3851 205.075 32.5391 204.723 32.6601 204.437C32.7041 204.316 32.7921 204.261 32.9241 204.261C33.2431 204.272 33.5621 204.272 33.8921 204.283C34.1671 204.283 34.4531 204.305 34.7281 204.305C35.0911 204.316 35.4541 204.316 35.8171 204.316C35.9491 204.316 36.0261 204.371 36.0591 204.492C36.0921 204.58 36.1141 204.657 36.1471 204.745C36.3121 205.108 36.5321 205.603 36.6531 206.01C36.6641 206.043 36.6971 206.065 36.7301 206.065C36.9501 206.065 37.6871 206.065 37.9951 206.065C38.0501 206.065 38.0941 206.054 38.1601 206.043C38.1491 205.966 38.1381 205.911 38.1161 205.856C38.0281 205.647 37.9401 205.438 37.8521 205.218C37.7751 205.031 37.6871 204.844 37.6101 204.646C37.4341 204.239 37.2581 203.832 37.0931 203.414C36.8511 202.831 36.6201 202.237 36.3891 201.654C36.0811 200.906 35.7621 200.158 35.4541 199.41C35.3551 199.146 35.2561 198.882 35.1571 198.618C35.0801 198.409 35.0581 198.398 34.8161 198.398C34.5411 198.387 34.2551 198.387 33.9801 198.387C33.9251 198.387 33.8701 198.398 33.7931 198.409C33.7161 198.585 33.6501 198.728 33.5841 198.882ZM34.7941 201.346C34.9041 201.61 35.0031 201.885 35.1131 202.16C35.2231 202.435 35.3441 202.71 35.4541 202.985C35.4541 203.062 35.3991 203.073 35.3441 203.084C35.3001 203.084 35.2451 203.084 35.1901 203.084C34.6731 203.084 34.1561 203.073 33.6391 203.073C33.2761 203.073 33.2541 203.029 33.3971 202.699C33.6281 202.16 33.8591 201.632 34.0901 201.093C34.1561 200.939 34.2331 200.774 34.3101 200.62C34.3321 200.587 34.3651 200.554 34.4201 200.488C34.5851 200.785 34.6731 201.071 34.7941 201.346ZM45.4458 206.065C45.5008 206.065 45.5668 206.054 45.6328 206.043C46.0068 206.01 46.3478 205.867 46.6778 205.691C47.1728 205.427 47.6128 205.097 47.9648 204.646C48.1738 204.382 48.3388 204.085 48.4928 203.777C48.7458 203.282 48.8338 202.754 48.8558 202.204C48.8668 201.808 48.7898 201.423 48.6798 201.038C48.5258 200.488 48.2288 200.026 47.8658 199.597C47.5798 199.256 47.2168 199.003 46.8318 198.783C46.7438 198.728 46.6668 198.684 46.5788 198.651C46.1168 198.497 45.6548 198.354 45.1598 198.387C44.9618 198.398 42.7948 198.387 41.9038 198.387C41.8268 198.387 41.7388 198.354 41.6618 198.442C41.6618 198.508 41.6508 198.596 41.6508 198.673C41.6398 198.915 41.6398 199.146 41.6398 199.388C41.6288 199.718 41.6068 200.059 41.6068 200.4C41.5958 201.082 41.5958 201.764 41.5958 202.446C41.5958 202.853 41.5738 203.249 41.5628 203.656C41.5298 204.338 41.5408 205.031 41.5298 205.724C41.5298 205.801 41.5188 205.955 41.5298 206.065C41.6178 206.076 44.8628 206.065 45.4458 206.065ZM42.9488 204.316C42.9598 203.733 42.9488 203.15 42.9818 202.567C43.0148 201.83 43.0038 201.093 43.0148 200.356C43.0148 200.169 43.0148 199.982 43.0258 199.795C43.0258 199.685 43.0698 199.652 43.1798 199.652C43.5098 199.652 43.8398 199.674 44.1698 199.674C44.4558 199.685 44.7308 199.696 45.0168 199.696C45.7098 199.696 46.2818 199.96 46.7548 200.466C46.8648 200.587 46.9638 200.719 47.0628 200.862C47.2498 201.137 47.3378 201.456 47.4038 201.786C47.4698 202.138 47.4258 202.49 47.3488 202.831C47.2498 203.227 47.0298 203.557 46.7658 203.854C46.3918 204.283 45.9078 204.525 45.3468 204.646C45.1378 204.69 44.9178 204.701 44.6978 204.701C44.2248 204.69 43.7518 204.69 43.2678 204.69C43.1688 204.69 43.0588 204.701 42.9818 204.624C42.9268 204.525 42.9488 204.415 42.9488 204.316ZM56.3933 206.065C56.4483 206.065 56.5143 206.054 56.5803 206.043C56.9543 206.01 57.2953 205.867 57.6253 205.691C58.1203 205.427 58.5603 205.097 58.9123 204.646C59.1213 204.382 59.2863 204.085 59.4403 203.777C59.6933 203.282 59.7813 202.754 59.8033 202.204C59.8143 201.808 59.7373 201.423 59.6273 201.038C59.4733 200.488 59.1763 200.026 58.8133 199.597C58.5273 199.256 58.1643 199.003 57.7793 198.783C57.6913 198.728 57.6143 198.684 57.5263 198.651C57.0643 198.497 56.6023 198.354 56.1073 198.387C55.9093 198.398 53.7423 198.387 52.8513 198.387C52.7743 198.387 52.6863 198.354 52.6093 198.442C52.6093 198.508 52.5983 198.596 52.5983 198.673C52.5873 198.915 52.5873 199.146 52.5873 199.388C52.5763 199.718 52.5543 200.059 52.5543 200.4C52.5433 201.082 52.5433 201.764 52.5433 202.446C52.5433 202.853 52.5213 203.249 52.5103 203.656C52.4773 204.338 52.4883 205.031 52.4773 205.724C52.4773 205.801 52.4663 205.955 52.4773 206.065C52.5653 206.076 55.8103 206.065 56.3933 206.065ZM53.8963 204.316C53.9073 203.733 53.8963 203.15 53.9293 202.567C53.9623 201.83 53.9513 201.093 53.9623 200.356C53.9623 200.169 53.9623 199.982 53.9733 199.795C53.9733 199.685 54.0173 199.652 54.1273 199.652C54.4573 199.652 54.7873 199.674 55.1173 199.674C55.4033 199.685 55.6783 199.696 55.9643 199.696C56.6573 199.696 57.2293 199.96 57.7023 200.466C57.8123 200.587 57.9113 200.719 58.0103 200.862C58.1973 201.137 58.2853 201.456 58.3513 201.786C58.4173 202.138 58.3733 202.49 58.2963 202.831C58.1973 203.227 57.9773 203.557 57.7133 203.854C57.3393 204.283 56.8553 204.525 56.2943 204.646C56.0853 204.69 55.8653 204.701 55.6453 204.701C55.1723 204.69 54.6993 204.69 54.2153 204.69C54.1163 204.69 54.0063 204.701 53.9293 204.624C53.8743 204.525 53.8963 204.415 53.8963 204.316ZM69.9495 204.679C69.9275 204.701 69.9385 204.756 69.9495 204.789C69.9605 204.833 70.0045 204.855 70.0265 204.888C70.3785 205.174 70.7415 205.438 71.1485 205.636C71.2475 205.68 71.3685 205.713 71.4675 205.768C71.8745 205.955 72.2925 206.076 72.7215 206.142C73.4585 206.252 74.2065 206.285 74.9325 206.098C75.1195 206.043 75.3065 206.01 75.4715 205.922C75.6255 205.834 75.7905 205.746 75.9335 205.658C76.3955 205.394 76.7035 204.998 76.8575 204.503C77.0445 203.92 76.9895 203.348 76.7145 202.798C76.6375 202.644 76.5385 202.49 76.4175 202.358C76.0655 201.984 75.6255 201.775 75.1415 201.665C74.8445 201.599 74.5475 201.544 74.2395 201.511C73.8325 201.478 73.4255 201.467 73.0185 201.434C72.6775 201.412 72.3585 201.324 72.0615 201.159C71.8305 201.038 71.6985 200.741 71.7645 200.488C71.8085 200.268 71.9075 200.081 72.0725 199.927C72.3475 199.674 72.6555 199.553 73.0185 199.542C73.1065 199.542 73.2055 199.542 73.2935 199.531C73.8875 199.52 74.4705 199.597 75.0095 199.85C75.1965 199.938 75.3835 200.037 75.5705 200.125C75.6915 200.191 75.7465 200.191 75.8235 200.092C76.0215 199.839 76.2195 199.586 76.4065 199.322C76.4835 199.223 76.4725 199.135 76.3735 199.08C76.1865 198.948 75.9885 198.816 75.7905 198.717C75.0865 198.409 74.3495 198.211 73.5685 198.222C73.2275 198.222 72.8755 198.211 72.5345 198.299C72.2925 198.365 72.0395 198.453 71.7975 198.541C71.4345 198.662 71.1595 198.904 70.9065 199.168C70.7525 199.322 70.6095 199.498 70.5325 199.707C70.4005 200.081 70.2685 200.455 70.3565 200.862C70.4115 201.148 70.4555 201.434 70.6095 201.698C70.7965 202.028 71.0605 202.27 71.4125 202.424C71.7535 202.567 72.1275 202.644 72.5015 202.688C73.0955 202.754 73.6895 202.82 74.2725 202.897C74.5035 202.93 74.7345 202.963 74.9435 203.062C75.2405 203.205 75.4165 203.414 75.4825 203.744C75.5595 204.129 75.4055 204.47 75.0755 204.679C74.8555 204.822 74.6135 204.888 74.3605 204.888C73.9975 204.91 73.6345 204.899 73.2605 204.888C73.0845 204.877 72.9085 204.855 72.7325 204.811C72.0945 204.624 71.4895 204.382 70.9835 203.942C70.9395 203.898 70.8735 203.865 70.7965 203.821C70.4775 204.085 70.2025 204.382 69.9495 204.679ZM88.734 201.467C88.712 201.357 88.712 201.236 88.668 201.137C88.602 200.939 88.525 200.741 88.437 200.554C88.052 199.74 87.447 199.124 86.644 198.717C86.512 198.651 86.358 198.596 86.215 198.53C85.753 198.332 85.258 198.266 84.763 198.222C84.532 198.2 84.367 198.211 84.147 198.233C83.927 198.244 83.652 198.299 83.432 198.343C82.926 198.453 82.464 198.64 82.035 198.937C81.793 199.102 81.573 199.289 81.375 199.509C80.935 199.96 80.627 200.499 80.44 201.104C80.374 201.324 80.363 201.555 80.319 201.775C80.242 202.182 80.297 202.589 80.363 202.985C80.473 203.623 80.77 204.195 81.177 204.712C81.474 205.108 81.848 205.416 82.277 205.658C82.497 205.779 82.717 205.889 82.959 205.966C83.828 206.263 84.719 206.296 85.621 206.142C86.127 206.054 86.567 205.834 86.996 205.57C87.161 205.46 87.326 205.35 87.469 205.207C87.733 204.954 87.997 204.69 88.195 204.36C88.393 204.03 88.558 203.678 88.668 203.315C88.778 202.974 88.822 202.611 88.822 202.16C88.822 201.984 88.789 201.72 88.734 201.467ZM83.322 204.591C82.695 204.327 82.222 203.909 81.936 203.271C81.782 202.919 81.683 202.556 81.694 202.16C81.716 201.61 81.881 201.126 82.2 200.686C82.409 200.4 82.662 200.18 82.948 199.993C82.981 199.971 83.025 199.949 83.058 199.927C83.553 199.718 84.059 199.586 84.598 199.597C84.895 199.597 85.192 199.641 85.478 199.762C85.621 199.828 85.764 199.872 85.907 199.938C86.589 200.224 87.007 200.752 87.271 201.434C87.425 201.83 87.425 202.248 87.37 202.666C87.26 203.458 86.809 204.041 86.149 204.448C85.698 204.734 85.203 204.866 84.697 204.833C84.202 204.833 83.751 204.778 83.322 204.591ZM100.704 199.135C100.704 198.926 100.704 198.706 100.693 198.486C100.693 198.442 100.682 198.409 100.66 198.376H99.1422C99.0872 198.453 99.0212 198.53 98.9552 198.618C98.6362 199.091 98.3172 199.564 97.9872 200.026C97.6022 200.565 97.2172 201.093 96.8652 201.643C96.7992 201.742 96.7222 201.83 96.6452 201.929C96.4582 201.808 96.4252 201.775 96.3152 201.599C96.1612 201.357 96.0072 201.104 95.8422 200.873C95.4462 200.312 95.0502 199.751 94.6542 199.19C94.4672 198.915 94.2802 198.651 94.0822 198.376H92.5642C92.5202 198.431 92.5202 198.53 92.5202 198.673C92.5202 199.597 92.5092 200.51 92.4982 201.423C92.4982 201.665 92.4872 201.896 92.4872 202.138C92.4872 202.633 92.4982 203.139 92.4982 203.634C92.4982 203.645 92.4982 203.656 92.4982 203.667C92.4542 204.03 92.4762 204.404 92.4982 204.778C92.4982 204.954 92.4872 205.13 92.4762 205.306C92.4762 205.504 92.4652 205.702 92.4652 205.9C92.4542 205.955 92.4872 206.01 92.4872 206.054C92.4982 206.065 92.5092 206.065 92.5092 206.065H93.8402C93.8622 206.043 93.8732 205.999 93.8842 205.955C93.8952 205.603 93.9062 205.262 93.9062 204.921C93.9062 204.393 93.8952 203.865 93.8842 203.326C93.8842 202.897 93.8952 202.457 93.8952 202.017C93.8952 201.819 93.8952 201.61 93.9282 201.401C93.9502 201.247 93.9282 201.093 93.9172 200.939C93.8952 200.829 93.9062 200.73 93.9722 200.631C94.2032 200.862 94.3352 201.148 94.5112 201.401C94.6982 201.643 94.8522 201.907 95.0172 202.149C95.1932 202.413 95.3692 202.666 95.5452 202.93C95.7212 203.172 95.8862 203.425 96.0622 203.667C96.2492 203.909 96.3592 204.206 96.6122 204.426C96.7442 204.25 96.8542 204.074 96.9752 203.909C97.1072 203.733 97.2282 203.546 97.3492 203.37C97.4702 203.205 97.5912 203.029 97.7122 202.864C97.8442 202.688 97.9652 202.512 98.0862 202.325C98.2072 202.16 98.3282 201.995 98.4602 201.819C98.5812 201.643 98.7132 201.467 98.8452 201.302C98.9662 201.137 99.0432 200.939 99.2522 200.796C99.2962 201.412 99.2522 201.995 99.2632 202.567C99.2742 203.15 99.2632 203.733 99.2632 204.316C99.2632 204.888 99.2632 205.471 99.2632 206.065H100.638C100.66 206.043 100.671 206.01 100.682 205.966C100.682 205.9 100.693 205.823 100.693 205.757C100.693 205.493 100.682 205.229 100.682 204.976C100.682 204.162 100.693 203.348 100.693 202.545C100.693 201.412 100.693 200.268 100.704 199.135ZM106.363 202.82C107.199 202.82 108.035 202.82 108.86 202.82C109.047 202.82 109.234 202.82 109.421 202.82C109.52 202.809 109.575 202.787 109.586 202.699C109.608 202.633 109.608 202.567 109.608 202.49C109.608 202.424 109.597 202.347 109.608 202.27C109.641 202.061 109.597 201.841 109.586 201.632C109.586 201.566 109.564 201.511 109.542 201.445C109.256 201.445 108.992 201.445 108.717 201.445C108.442 201.445 108.156 201.456 107.881 201.456C107.606 201.456 107.331 201.456 107.067 201.456C106.792 201.445 106.506 201.467 106.22 201.434C106.187 201.28 106.154 201.137 106.165 200.994C106.187 200.774 106.187 200.554 106.198 200.334C106.198 200.224 106.187 200.114 106.198 199.993C106.198 199.74 106.22 199.718 106.484 199.707C106.594 199.707 106.715 199.707 106.825 199.707C107.331 199.707 107.826 199.707 108.321 199.707C108.838 199.707 109.344 199.718 109.85 199.718C110.07 199.718 110.29 199.707 110.51 199.707C110.642 199.696 110.697 199.641 110.708 199.52C110.73 199.234 110.708 198.937 110.774 198.651C110.774 198.618 110.774 198.574 110.763 198.53C110.741 198.42 110.73 198.387 110.62 198.387C110.444 198.387 107.661 198.376 106.627 198.387C106.077 198.387 105.516 198.376 104.966 198.387C104.889 198.387 104.801 198.365 104.724 198.453C104.724 198.882 104.713 199.333 104.713 199.773C104.713 200.466 104.713 201.17 104.713 201.863C104.713 202.666 104.713 203.414 104.713 204.217C104.713 204.734 104.713 205.251 104.713 205.779C104.702 206.032 104.724 206.065 104.988 206.076C105.571 206.076 106.154 206.065 106.737 206.065C107.21 206.065 107.672 206.054 108.145 206.054C108.805 206.054 109.476 206.054 110.136 206.065C110.323 206.065 110.466 206.065 110.697 206.065C110.785 205.823 110.697 205.504 110.752 205.273C110.763 205.196 110.752 205.13 110.752 205.053C110.741 204.965 110.719 204.866 110.708 204.778C110.697 204.701 110.642 204.657 110.554 204.657C110.488 204.646 110.411 204.646 110.334 204.657C110.224 204.679 110.114 204.679 109.993 204.668C109.663 204.646 109.311 204.69 108.981 204.657C108.948 204.657 108.915 204.657 108.882 204.668C108.772 204.701 108.662 204.69 108.541 204.668C108.497 204.657 108.442 204.668 108.387 204.668C108.266 204.679 108.145 204.701 108.013 204.701C107.474 204.701 106.935 204.701 106.396 204.69C106.22 204.69 106.165 204.646 106.154 204.481C106.154 204.437 106.154 204.393 106.154 204.36C106.154 203.898 106.165 203.491 106.165 203.04C106.165 202.974 106.176 202.919 106.176 202.831C106.264 202.831 106.319 202.82 106.363 202.82ZM51.6136 214.376H50.2936C50.2826 214.42 50.2826 214.453 50.2826 214.497C50.2716 214.739 50.2606 214.981 50.2606 215.234C50.2606 215.465 50.2276 215.707 50.2606 215.949C50.2716 216.059 50.2606 216.169 50.2496 216.268C50.2496 216.455 50.2386 216.642 50.2386 216.829C50.2386 217.016 50.2606 217.192 50.2606 217.368C50.2606 217.621 50.2716 217.885 50.2386 218.127C50.2166 218.38 50.2496 218.633 50.2276 218.886C50.1946 219.194 50.2276 219.513 50.2166 219.832C50.2166 220.536 50.2166 221.229 50.2166 221.933C50.2166 221.977 50.2276 222.021 50.2276 222.065H51.5806C51.5806 221.812 51.5916 221.581 51.5916 221.339C51.5916 221.097 51.5586 220.855 51.6136 220.613C51.6246 220.569 51.6136 220.503 51.6136 220.459C51.6136 220.382 51.6136 220.305 51.6136 220.239C51.6136 220.118 51.6136 220.008 51.6136 219.887C51.6136 219.821 51.6026 219.766 51.6136 219.7C51.6136 219.568 51.6356 219.425 51.6356 219.293C51.6356 218.578 51.6356 217.874 51.6356 217.159C51.6466 216.29 51.6466 215.432 51.6466 214.563C51.6576 214.497 51.6576 214.431 51.6136 214.376ZM62.3862 214.376H55.1042C55.0602 214.464 55.0712 214.552 55.0712 214.64C55.0932 214.86 55.0712 215.146 55.0712 215.366C55.0602 215.652 55.0932 215.685 55.3902 215.685C55.6322 215.685 57.4142 215.674 57.7222 215.674C57.7552 215.685 57.7992 215.696 57.8542 215.718C57.8542 215.795 57.8762 215.883 57.8762 215.96C57.8762 216.246 57.8762 216.521 57.8762 216.807C57.8652 217.313 57.8542 217.819 57.8542 218.336C57.8542 218.842 57.8322 219.348 57.8212 219.854C57.7992 220.404 57.8102 221.042 57.7992 221.592C57.7992 221.746 57.8102 221.889 57.8102 222.065H59.3832C59.3942 222.043 59.3942 222.021 59.3942 221.977C59.4052 221.46 59.4162 220.943 59.4162 220.426C59.4162 219.205 59.4272 217.907 59.4712 216.686C59.4822 216.422 59.4822 216.147 59.4822 215.883C59.4822 215.828 59.5152 215.762 59.5262 215.707C60.0212 215.674 61.8582 215.685 62.4192 215.685C62.4302 215.542 62.4632 215.443 62.4632 215.311C62.4522 215.157 62.4632 215.003 62.4852 214.849C62.5072 214.695 62.4852 214.541 62.3862 214.376ZM67.5641 218.82C68.4001 218.82 69.2361 218.82 70.0611 218.82C70.2481 218.82 70.4351 218.82 70.6221 218.82C70.7211 218.809 70.7761 218.787 70.7871 218.699C70.8091 218.633 70.8091 218.567 70.8091 218.49C70.8091 218.424 70.7981 218.347 70.8091 218.27C70.8421 218.061 70.7981 217.841 70.7871 217.632C70.7871 217.566 70.7651 217.511 70.7431 217.445C70.4571 217.445 70.1931 217.445 69.9181 217.445C69.6431 217.445 69.3571 217.456 69.0821 217.456C68.8071 217.456 68.5321 217.456 68.2681 217.456C67.9931 217.445 67.7071 217.467 67.4211 217.434C67.3881 217.28 67.3551 217.137 67.3661 216.994C67.3881 216.774 67.3881 216.554 67.3991 216.334C67.3991 216.224 67.3881 216.114 67.3991 215.993C67.3991 215.74 67.4211 215.718 67.6851 215.707C67.7951 215.707 67.9161 215.707 68.0261 215.707C68.5321 215.707 69.0271 215.707 69.5221 215.707C70.0391 215.707 70.5451 215.718 71.0511 215.718C71.2711 215.718 71.4911 215.707 71.7111 215.707C71.8431 215.696 71.8981 215.641 71.9091 215.52C71.9311 215.234 71.9091 214.937 71.9751 214.651C71.9751 214.618 71.9751 214.574 71.9641 214.53C71.9421 214.42 71.9311 214.387 71.8211 214.387C71.6451 214.387 68.8621 214.376 67.8281 214.387C67.2781 214.387 66.7171 214.376 66.1671 214.387C66.0901 214.387 66.0021 214.365 65.9251 214.453C65.9251 214.882 65.9141 215.333 65.9141 215.773C65.9141 216.466 65.9141 217.17 65.9141 217.863C65.9141 218.666 65.9141 219.414 65.9141 220.217C65.9141 220.734 65.9141 221.251 65.9141 221.779C65.9031 222.032 65.9251 222.065 66.1891 222.076C66.7721 222.076 67.3551 222.065 67.9381 222.065C68.4111 222.065 68.8731 222.054 69.3461 222.054C70.0061 222.054 70.6771 222.054 71.3371 222.065C71.5241 222.065 71.6671 222.065 71.8981 222.065C71.9861 221.823 71.8981 221.504 71.9531 221.273C71.9641 221.196 71.9531 221.13 71.9531 221.053C71.9421 220.965 71.9201 220.866 71.9091 220.778C71.8981 220.701 71.8431 220.657 71.7551 220.657C71.6891 220.646 71.6121 220.646 71.5351 220.657C71.4251 220.679 71.3151 220.679 71.1941 220.668C70.8641 220.646 70.5121 220.69 70.1821 220.657C70.1491 220.657 70.1161 220.657 70.0831 220.668C69.9731 220.701 69.8631 220.69 69.7421 220.668C69.6981 220.657 69.6431 220.668 69.5881 220.668C69.4671 220.679 69.3461 220.701 69.2141 220.701C68.6751 220.701 68.1361 220.701 67.5971 220.69C67.4211 220.69 67.3661 220.646 67.3551 220.481C67.3551 220.437 67.3551 220.393 67.3551 220.36C67.3551 219.898 67.3661 219.491 67.3661 219.04C67.3661 218.974 67.3771 218.919 67.3771 218.831C67.4651 218.831 67.5201 218.82 67.5641 218.82ZM83.8323 215.135C83.8323 214.926 83.8323 214.706 83.8213 214.486C83.8213 214.442 83.8103 214.409 83.7883 214.376H82.2703C82.2153 214.453 82.1493 214.53 82.0833 214.618C81.7643 215.091 81.4453 215.564 81.1153 216.026C80.7303 216.565 80.3453 217.093 79.9933 217.643C79.9273 217.742 79.8503 217.83 79.7733 217.929C79.5863 217.808 79.5533 217.775 79.4433 217.599C79.2893 217.357 79.1353 217.104 78.9703 216.873C78.5743 216.312 78.1783 215.751 77.7823 215.19C77.5953 214.915 77.4083 214.651 77.2103 214.376H75.6923C75.6483 214.431 75.6483 214.53 75.6483 214.673C75.6483 215.597 75.6373 216.51 75.6263 217.423C75.6263 217.665 75.6153 217.896 75.6153 218.138C75.6153 218.633 75.6263 219.139 75.6263 219.634C75.6263 219.645 75.6263 219.656 75.6263 219.667C75.5823 220.03 75.6043 220.404 75.6263 220.778C75.6263 220.954 75.6153 221.13 75.6043 221.306C75.6043 221.504 75.5933 221.702 75.5933 221.9C75.5823 221.955 75.6153 222.01 75.6153 222.054C75.6263 222.065 75.6373 222.065 75.6373 222.065H76.9683C76.9903 222.043 77.0013 221.999 77.0123 221.955C77.0233 221.603 77.0343 221.262 77.0343 220.921C77.0343 220.393 77.0233 219.865 77.0123 219.326C77.0123 218.897 77.0233 218.457 77.0233 218.017C77.0233 217.819 77.0233 217.61 77.0563 217.401C77.0783 217.247 77.0563 217.093 77.0453 216.939C77.0233 216.829 77.0343 216.73 77.1003 216.631C77.3313 216.862 77.4633 217.148 77.6393 217.401C77.8263 217.643 77.9803 217.907 78.1453 218.149C78.3213 218.413 78.4973 218.666 78.6733 218.93C78.8493 219.172 79.0143 219.425 79.1903 219.667C79.3773 219.909 79.4873 220.206 79.7403 220.426C79.8723 220.25 79.9823 220.074 80.1033 219.909C80.2353 219.733 80.3563 219.546 80.4773 219.37C80.5983 219.205 80.7193 219.029 80.8403 218.864C80.9723 218.688 81.0933 218.512 81.2143 218.325C81.3353 218.16 81.4563 217.995 81.5883 217.819C81.7093 217.643 81.8413 217.467 81.9733 217.302C82.0943 217.137 82.1713 216.939 82.3803 216.796C82.4243 217.412 82.3803 217.995 82.3913 218.567C82.4023 219.15 82.3913 219.733 82.3913 220.316C82.3913 220.888 82.3913 221.471 82.3913 222.065H83.7663C83.7883 222.043 83.7993 222.01 83.8103 221.966C83.8103 221.9 83.8213 221.823 83.8213 221.757C83.8213 221.493 83.8103 221.229 83.8103 220.976C83.8103 220.162 83.8213 219.348 83.8213 218.545C83.8213 217.412 83.8213 216.268 83.8323 215.135ZM87.4564 220.679C87.4344 220.701 87.4454 220.756 87.4564 220.789C87.4674 220.833 87.5114 220.855 87.5334 220.888C87.8854 221.174 88.2484 221.438 88.6554 221.636C88.7544 221.68 88.8754 221.713 88.9744 221.768C89.3814 221.955 89.7994 222.076 90.2284 222.142C90.9654 222.252 91.7134 222.285 92.4394 222.098C92.6264 222.043 92.8134 222.01 92.9784 221.922C93.1324 221.834 93.2974 221.746 93.4404 221.658C93.9024 221.394 94.2104 220.998 94.3644 220.503C94.5514 219.92 94.4964 219.348 94.2214 218.798C94.1444 218.644 94.0454 218.49 93.9244 218.358C93.5724 217.984 93.1324 217.775 92.6484 217.665C92.3514 217.599 92.0544 217.544 91.7464 217.511C91.3394 217.478 90.9324 217.467 90.5254 217.434C90.1844 217.412 89.8654 217.324 89.5684 217.159C89.3374 217.038 89.2054 216.741 89.2714 216.488C89.3154 216.268 89.4144 216.081 89.5794 215.927C89.8544 215.674 90.1624 215.553 90.5254 215.542C90.6134 215.542 90.7124 215.542 90.8004 215.531C91.3944 215.52 91.9774 215.597 92.5164 215.85C92.7034 215.938 92.8904 216.037 93.0774 216.125C93.1984 216.191 93.2534 216.191 93.3304 216.092C93.5284 215.839 93.7264 215.586 93.9134 215.322C93.9904 215.223 93.9794 215.135 93.8804 215.08C93.6934 214.948 93.4954 214.816 93.2974 214.717C92.5934 214.409 91.8564 214.211 91.0754 214.222C90.7344 214.222 90.3824 214.211 90.0414 214.299C89.7994 214.365 89.5464 214.453 89.3044 214.541C88.9414 214.662 88.6664 214.904 88.4134 215.168C88.2594 215.322 88.1164 215.498 88.0394 215.707C87.9074 216.081 87.7754 216.455 87.8634 216.862C87.9184 217.148 87.9624 217.434 88.1164 217.698C88.3034 218.028 88.5674 218.27 88.9194 218.424C89.2604 218.567 89.6344 218.644 90.0084 218.688C90.6024 218.754 91.1964 218.82 91.7794 218.897C92.0104 218.93 92.2414 218.963 92.4504 219.062C92.7474 219.205 92.9234 219.414 92.9894 219.744C93.0664 220.129 92.9124 220.47 92.5824 220.679C92.3624 220.822 92.1204 220.888 91.8674 220.888C91.5044 220.91 91.1414 220.899 90.7674 220.888C90.5914 220.877 90.4154 220.855 90.2394 220.811C89.6014 220.624 88.9964 220.382 88.4904 219.942C88.4464 219.898 88.3804 219.865 88.3034 219.821C87.9844 220.085 87.7094 220.382 87.4564 220.679Z" fill="#EBB28A"/>
</svg>
