<svg xmlns="http://www.w3.org/2000/svg" viewBox="0 0 1868.24 1840.55"><defs><style>.cls-1{fill:none;stroke:#642975;stroke-miterlimit:10;stroke-width:58px;}.cls-2{fill:#fff;}.cls-11,.cls-3{fill:#ebb99f;}.cls-3{opacity:0.2;}.cls-4{fill:#ebb28a;}.cls-5{fill:#f9e9db;}.cls-6{fill:#642975;}.cls-7{fill:#e9b28a;}.cls-8,.cls-9{fill:#652875;}.cls-10,.cls-9{opacity:0.1;}.cls-12{fill:#fdebe6;}</style></defs><g id="Layer_2" data-name="Layer 2"><g id="Layer_1-2" data-name="Layer 1"><path class="cls-1" d="M1600.39,157.85V1524a129,129,0,0,1-129.05,129H158.05A129,129,0,0,1,29,1524V157.85C29,86.75,86.75,29,158.05,29H1471.34C1542.64,29,1600.39,86.75,1600.39,157.85Z"/><path class="cls-2" d="M1600.39,157.85V1524a129,129,0,0,1-129.05,129H158.05A129,129,0,0,1,29,1524V157.85C29,86.75,86.75,29,158.05,29H1471.34C1542.64,29,1600.39,86.75,1600.39,157.85Z"/><path class="cls-3" d="M1600.39,447.59V157.85c0-71.1-57.75-128.85-129.05-128.85H158.05C86.75,29,29,86.75,29,157.85V447.59Z"/><circle class="cls-4" cx="396.51" cy="238.29" r="96.51" transform="translate(-52.36 350.17) rotate(-45)"/><circle class="cls-4" cx="1232.97" cy="238.29" r="96.51" transform="translate(192.63 941.63) rotate(-45)"/><rect class="cls-5" x="852.69" y="594.06" width="160.99" height="160.99"/><rect class="cls-5" x="1089.66" y="594.06" width="160.99" height="160.99"/><rect class="cls-6" x="1326.63" y="594.06" width="160.99" height="160.99"/><rect class="cls-5" x="141.77" y="844.57" width="160.99" height="160.99"/><rect class="cls-5" x="378.74" y="844.57" width="160.99" height="160.99"/><rect class="cls-5" x="615.72" y="844.57" width="160.99" height="160.99"/><rect class="cls-6" x="852.69" y="844.57" width="160.99" height="160.99"/><rect class="cls-5" x="1089.66" y="844.57" width="160.99" height="160.99"/><rect class="cls-5" x="1326.63" y="844.57" width="160.99" height="160.99"/><rect class="cls-5" x="141.77" y="1095.07" width="160.99" height="160.99"/><rect class="cls-5" x="378.74" y="1095.07" width="160.99" height="160.99"/><rect class="cls-7" x="615.72" y="1095.07" width="160.99" height="160.99"/><rect class="cls-5" x="852.69" y="1095.07" width="160.99" height="160.99"/><rect class="cls-5" x="1089.66" y="1095.07" width="160.99" height="160.99"/><rect class="cls-5" x="1326.63" y="1095.07" width="160.99" height="160.99"/><rect class="cls-7" x="141.77" y="1345.57" width="160.99" height="160.99"/><rect class="cls-5" x="378.74" y="1345.57" width="160.99" height="160.99"/><rect class="cls-5" x="615.72" y="1345.57" width="160.99" height="160.99"/><rect class="cls-5" x="852.69" y="1345.57" width="160.99" height="160.99"/><circle class="cls-8" cx="1420.27" cy="1392.58" r="447.97"/><path class="cls-9" d="M1744.52,1083.46a445.79,445.79,0,0,0-312.38-126.92c-247.38,0-448,200.49-448,448a446.48,446.48,0,0,0,123.54,308.9,446.39,446.39,0,0,1-135.39-320.84c0-247.38,200.49-448,448-448A446.81,446.81,0,0,1,1744.52,1083.46Z"/><circle class="cls-5" cx="1420.27" cy="1392.57" r="414.41"/><path class="cls-10" d="M1723.06,1109.63A413,413,0,0,0,1440.13,998c-228.87,0-414.41,185.52-414.41,414.39a413.16,413.16,0,0,0,111.6,282.95,413.34,413.34,0,0,1-131.46-302.81c0-228.87,185.55-414.39,414.42-414.39A413.24,413.24,0,0,1,1723.06,1109.63Z"/><circle class="cls-2" cx="1420.27" cy="1392.57" r="338.14"/><path class="cls-8" d="M1420.27,1406.39a13.82,13.82,0,0,1-13.82-13.82V1167.34a13.82,13.82,0,0,1,27.63,0v225.23A13.82,13.82,0,0,1,1420.27,1406.39Z"/><path class="cls-8" d="M1546.05,1532.18a13.77,13.77,0,0,1-9.77-4L1410.5,1402.34a13.81,13.81,0,1,1,19.53-19.53l125.79,125.78a13.82,13.82,0,0,1-9.77,23.59Z"/><path class="cls-8" d="M1250.9,1575.75a13.81,13.81,0,0,1-9.77-23.58l234-234a13.81,13.81,0,1,1,19.53,19.53l-234,234A13.77,13.77,0,0,1,1250.9,1575.75Z"/><circle class="cls-11" cx="1420.27" cy="1392.57" r="47.72" transform="translate(-261.36 2454.9) rotate(-76.72)"/><circle class="cls-12" cx="1420.27" cy="1392.57" r="28.31" transform="translate(-261.36 2454.9) rotate(-76.72)"/><path class="cls-8" d="M1429.19,1097.34v26.22a8.93,8.93,0,0,1-17.85,0v-26.22a8.93,8.93,0,1,1,17.85,0Z"/><path class="cls-8" d="M1429.19,1661.67v26.22a8.93,8.93,0,0,1-17.85,0v-26.22a8.93,8.93,0,1,1,17.85,0Z"/><path class="cls-8" d="M1715.5,1401.5h-26.23a8.93,8.93,0,0,1,0-17.85h26.23a8.93,8.93,0,1,1,0,17.85Z"/><path class="cls-8" d="M1151.17,1401.5H1125a8.93,8.93,0,0,1,0-17.85h26.22a8.93,8.93,0,1,1,0,17.85Z"/><path class="cls-8" d="M1635.34,1190.12l-18.54,18.55a8.93,8.93,0,0,1-12.63-12.63l18.55-18.54a8.92,8.92,0,1,1,12.62,12.62Z"/><path class="cls-8" d="M1236.3,1589.16l-18.54,18.54a8.93,8.93,0,0,1-12.63-12.62l18.55-18.54a8.92,8.92,0,1,1,12.62,12.62Z"/><path class="cls-8" d="M1622.72,1607.64l-18.55-18.54a8.93,8.93,0,0,1,12.63-12.62l18.54,18.54a8.92,8.92,0,1,1-12.62,12.62Z"/><path class="cls-8" d="M1223.68,1208.6l-18.55-18.54a8.93,8.93,0,0,1,12.63-12.62L1236.3,1196a8.92,8.92,0,1,1-12.62,12.62Z"/></g></g></svg>