<svg id="Layer_1" data-name="Layer 1" xmlns="http://www.w3.org/2000/svg" viewBox="0 0 97.46 77.97"><defs><style>.cls-1,.cls-2{fill:#662774;}.cls-2{opacity:0.3;}</style></defs><path class="cls-1" d="M97.46,60.91A2.44,2.44,0,0,1,95,63.35H87.71a14.62,14.62,0,1,1-29.23,0H39a14.62,14.62,0,1,1-29.23,0A9.74,9.74,0,0,1,0,53.6V9.75A9.74,9.74,0,0,1,9.75,0H53.6a9.74,9.74,0,0,1,9.75,9.75v4.87h9.94a7.3,7.3,0,0,1,5.55,2.55L89.66,29.79a12.2,12.2,0,0,1,2.93,7.93V58.48H95A2.43,2.43,0,0,1,97.46,60.91ZM87.71,39H63.35v4.88a2.44,2.44,0,0,1-4.87,0V9.75A4.88,4.88,0,0,0,53.6,4.87H9.75A4.87,4.87,0,0,0,4.87,9.75V53.6a4.88,4.88,0,0,0,4.88,4.88h.85a14.59,14.59,0,0,1,27.53,0h21.2a14.59,14.59,0,0,1,27.53,0h.85ZM34.11,63.35a9.75,9.75,0,1,0-9.74,9.75A9.75,9.75,0,0,0,34.11,63.35ZM63.35,34.11h23.4A8.09,8.09,0,0,0,86,33L75.14,20.34a2.43,2.43,0,0,0-1.85-.85H63.35ZM82.84,63.35a9.75,9.75,0,1,0-9.75,9.75A9.76,9.76,0,0,0,82.84,63.35Z"/><path class="cls-2" d="M87.71,39H63.35v4.88a2.44,2.44,0,0,1-4.87,0V9.75A4.88,4.88,0,0,0,53.6,4.87H9.75A4.87,4.87,0,0,0,4.87,9.75V53.6a4.88,4.88,0,0,0,4.88,4.88h.85a14.59,14.59,0,0,1,27.53,0h21.2a14.59,14.59,0,0,1,27.53,0h.85Z"/></svg>