<svg xmlns="http://www.w3.org/2000/svg" viewBox="0 0 73.34 93.12"><defs><style>.cls-1,.cls-2{fill:#6c2874;}.cls-2{opacity:0.31;}</style></defs><g id="Layer_2" data-name="Layer 2"><g id="Layer_1-2" data-name="Layer 1"><path class="cls-1" d="M36.67,0A36.67,36.67,0,0,0,0,36.67V54.38C0,74.23,14.87,92,34.7,93.07c.66,0,1.32.05,2,.05A36.67,36.67,0,0,0,73.34,56.45V36.67A36.67,36.67,0,0,0,36.67,0ZM6,36.67a30.68,30.68,0,1,1,61.36,0V54.76a6.31,6.31,0,0,0-.76-.08,32.93,32.93,0,0,0-3.87.39L60.51,41.53a2.23,2.23,0,0,0-2.21-1.87,2.19,2.19,0,0,0-1.17.33l-10,6.15c-.41-.75-.76-1.52-1.25-2.24L38.63,33a2.1,2.1,0,0,0-3.49,0L27.84,43.9c-.49.72-.84,1.49-1.25,2.24L16.64,40a2.19,2.19,0,0,0-1.17-.33,2.23,2.23,0,0,0-2.21,1.87L11,55.12a32,32,0,0,0-4.29-.44c-.25,0-.48.07-.72.08,0-.13,0-.25,0-.38ZM56.85,56.33a32,32,0,0,0-6,2.53,30.3,30.3,0,0,0-1.31-7.16L55.5,48l1.35,8.28Zm-28,7.11a24.37,24.37,0,0,1,3.93-16.21l4.06-6.08L41,47.23a24.31,24.31,0,0,1,4,15.82,32.59,32.59,0,0,0-8.26,11.19A32.7,32.7,0,0,0,28.89,63.44ZM24.18,51.7a30.62,30.62,0,0,0-1.33,7.38,32.19,32.19,0,0,0-5.94-2.62.61.61,0,0,1,0-.14L18.27,48Zm-17.59,9h.16A26.73,26.73,0,0,1,33.43,86.83C20.15,85.35,9.19,74.48,6.59,60.69ZM39.91,86.8A26.74,26.74,0,0,1,66.59,60.68l.33,0A30.54,30.54,0,0,1,39.91,86.8Z"/><path class="cls-2" d="M6,36.67a30.68,30.68,0,1,1,61.36,0V54.76a6.31,6.31,0,0,0-.76-.08,32.93,32.93,0,0,0-3.87.39L60.51,41.53a2.23,2.23,0,0,0-2.21-1.87,2.19,2.19,0,0,0-1.17.33l-10,6.15c-.41-.75-.76-1.52-1.25-2.24L38.63,33a2.1,2.1,0,0,0-3.49,0L27.84,43.9c-.49.72-.84,1.49-1.25,2.24L16.64,40a2.19,2.19,0,0,0-1.17-.33,2.23,2.23,0,0,0-2.21,1.87L11,55.12a32,32,0,0,0-4.29-.44c-.25,0-.48.07-.72.08,0-.13,0-.25,0-.38Z"/></g></g></svg>