<svg width="38" height="48" viewBox="0 0 38 48" fill="none" xmlns="http://www.w3.org/2000/svg">
<path d="M19.4599 0.481445C14.543 0.481445 9.82758 2.43466 6.35085 5.91139C2.87411 9.38813 0.920898 14.1036 0.920898 19.0204L0.920898 27.9744C0.920898 38.0104 8.4389 46.9944 18.4639 47.5354C18.7979 47.5354 19.1309 47.5604 19.4749 47.5604C24.3893 47.5567 29.1012 45.6019 32.5749 42.1255C36.0486 38.6492 37.9999 33.9359 37.9999 29.0214V19.0214C38 16.5867 37.5206 14.1758 36.5889 11.9263C35.6572 9.6769 34.2916 7.63302 32.57 5.91139C30.8483 4.18977 28.8044 2.82413 26.555 1.89245C24.3056 0.960776 21.8946 0.481314 19.4599 0.481445V0.481445ZM3.9539 19.0204C3.9539 14.9067 5.58809 10.9614 8.49696 8.05251C11.4058 5.14364 15.3511 3.50945 19.4649 3.50945C23.5787 3.50945 27.524 5.14364 30.4328 8.05251C33.3417 10.9614 34.9759 14.9067 34.9759 19.0204V28.1664C34.8488 28.1454 34.7206 28.132 34.5919 28.1264C33.9362 28.1545 33.2827 28.2213 32.6349 28.3264L31.5129 21.4814C31.4696 21.2168 31.3333 20.9762 31.1286 20.803C30.9239 20.6298 30.6641 20.5353 30.3959 20.5364C30.1868 20.5351 29.9815 20.593 29.8039 20.7034L24.7479 23.8124C24.5409 23.4334 24.3639 23.0444 24.1159 22.6804L20.4509 17.1654C20.3538 17.0207 20.2225 16.902 20.0687 16.82C19.9149 16.7379 19.7432 16.695 19.5689 16.695C19.3946 16.695 19.2229 16.7379 19.0691 16.82C18.9153 16.902 18.784 17.0207 18.6869 17.1654L14.9959 22.6764C14.7479 23.0404 14.5709 23.4294 14.3639 23.8084L9.3339 20.7084C9.1563 20.598 8.95105 20.5401 8.7419 20.5414C8.47377 20.5392 8.21361 20.6325 8.00815 20.8048C7.80268 20.9771 7.66538 21.217 7.6209 21.4814L6.4819 28.3484C5.76471 28.2258 5.04007 28.1516 4.3129 28.1264C4.1869 28.1264 4.0699 28.1614 3.9489 28.1664V27.9744L3.9539 19.0204ZM29.6619 28.9604C28.61 29.2826 27.5938 29.7111 26.6289 30.2394C26.5545 29.0106 26.3322 27.7951 25.9669 26.6194L28.9799 24.7484L29.6629 28.9344L29.6619 28.9604ZM15.5069 32.5554C15.1835 29.6734 15.8872 26.7698 17.4939 24.3554L19.5459 21.2814L21.6459 24.3554C23.2217 26.7094 23.936 29.5354 23.6679 32.3554C21.8851 33.9187 20.4607 35.8483 19.4919 38.0124C18.5585 35.9388 17.2073 34.0801 15.5229 32.5524L15.5069 32.5554ZM13.1459 26.6204C12.7699 27.8319 12.5442 29.0849 12.4739 30.3514C11.5211 29.8099 10.516 29.366 9.4739 29.0264C9.47116 29.0029 9.47116 28.979 9.4739 28.9554L10.1619 24.7494L13.1459 26.6204ZM4.2529 31.1704H4.3339C7.86147 31.1766 11.2468 32.5619 13.7668 35.0303C16.2869 37.4988 17.7418 40.8548 17.8209 44.3814C11.1069 43.6334 5.5659 38.1374 4.2509 31.1654L4.2529 31.1704ZM21.0989 44.3704C21.1793 40.844 22.6347 37.4886 25.1547 35.0204C27.6747 32.5522 31.0595 31.1666 34.5869 31.1594H34.7539C34.2752 34.5678 32.6714 37.7186 30.1973 40.1112C27.7231 42.5039 24.5204 44.0012 21.0979 44.3654L21.0989 44.3704Z" fill="#ECB28B"/>
</svg>
