<svg xmlns="http://www.w3.org/2000/svg" xmlns:xlink="http://www.w3.org/1999/xlink" viewBox="0 0 301.93 93.12"><defs><style>.cls-1{fill:url(#linear-gradient);}.cls-2{opacity:0.31;fill:url(#linear-gradient-2);}.cls-3{fill:#ecb28b;}</style><linearGradient id="linear-gradient" x1="217.65" y1="57.06" x2="301.37" y2="38.6" gradientUnits="userSpaceOnUse"><stop offset="0" stop-color="#ecb28b"/><stop offset="1" stop-color="#e4915e"/></linearGradient><linearGradient id="linear-gradient-2" x1="245.95" y1="37.11" x2="282.28" y2="29.72" xlink:href="#linear-gradient"/></defs><g id="Layer_2" data-name="Layer 2"><g id="Layer_1-2" data-name="Layer 1"><path class="cls-1" d="M265.26,0a36.67,36.67,0,0,0-36.67,36.67V54.38c0,19.85,14.87,37.65,34.7,38.69.66,0,1.32.05,2,.05a36.66,36.66,0,0,0,36.66-36.67V36.67A36.67,36.67,0,0,0,265.26,0ZM234.59,36.67a30.68,30.68,0,1,1,61.35,0V54.76a6.14,6.14,0,0,0-.75-.08,33.1,33.1,0,0,0-3.88.39l-2.2-13.54a2.24,2.24,0,0,0-2.22-1.87,2.21,2.21,0,0,0-1.17.33l-10,6.15c-.41-.75-.76-1.52-1.24-2.24L267.22,33a2.1,2.1,0,0,0-3.49,0l-7.3,10.93c-.48.72-.83,1.49-1.25,2.24L245.24,40a2.25,2.25,0,0,0-3.39,1.54l-2.21,13.59a32.12,32.12,0,0,0-4.3-.44c-.24,0-.47.07-.72.08,0-.13,0-.25,0-.38Zm50.86,19.66a32,32,0,0,0-6,2.53,30.3,30.3,0,0,0-1.31-7.16L284.1,48l1.34,8.28Zm-28,7.11a24.42,24.42,0,0,1,3.93-16.21l4.07-6.08,4.06,6.08a24.31,24.31,0,0,1,4,15.82,32.72,32.72,0,0,0-8.26,11.19A32.55,32.55,0,0,0,257.48,63.44Zm-4.7-11.74a30.15,30.15,0,0,0-1.34,7.38,31.9,31.9,0,0,0-5.94-2.62c0-.05,0-.1,0-.14L246.86,48Zm-17.6,9h.16A26.73,26.73,0,0,1,262,86.83C248.75,85.35,237.79,74.48,235.18,60.69ZM268.51,86.8a26.73,26.73,0,0,1,26.68-26.12c.11,0,.21,0,.32,0A30.53,30.53,0,0,1,268.51,86.8Z"/><path class="cls-2" d="M234.59,36.67a30.68,30.68,0,1,1,61.35,0V54.76a6.14,6.14,0,0,0-.75-.08,33.1,33.1,0,0,0-3.88.39l-2.2-13.54a2.24,2.24,0,0,0-2.22-1.87,2.21,2.21,0,0,0-1.17.33l-10,6.15c-.41-.75-.76-1.52-1.24-2.24L267.22,33a2.1,2.1,0,0,0-3.49,0l-7.3,10.93c-.48.72-.83,1.49-1.25,2.24L245.24,40a2.25,2.25,0,0,0-3.39,1.54l-2.21,13.59a32.12,32.12,0,0,0-4.3-.44c-.24,0-.47.07-.72.08,0-.13,0-.25,0-.38Z"/><path class="cls-3" d="M25.76,38.18l7,3V52.91A11.55,11.55,0,0,1,21.16,64.46H7.61L0,58.13l7.61-6.32,2.7,5.71h11.6a3.85,3.85,0,0,0,3.85-3.85V45.75L9.42,38.66l-6.95-3V24A11.55,11.55,0,0,1,14,12.4H27.57l7.61,6.33-7.61,6.33-2.7-5.71H13.27A3.85,3.85,0,0,0,9.42,23.2v7.89Z"/><path class="cls-3" d="M66.16,38.28V64.46H59.21V60.28l-3.86,4.18H47.47A11.55,11.55,0,0,1,35.92,52.91V33.68l6.42-6.95H54.61A11.55,11.55,0,0,1,66.16,38.28Zm-6.95-.75a3.85,3.85,0,0,0-3.85-3.85H42.87v20a3.85,3.85,0,0,0,3.85,3.85H59.21Z"/><path class="cls-3" d="M77.6,21.91v4.82h9.69l-2.56,7H77.6V70.33L70.66,72.9V22.67A11.55,11.55,0,0,1,82.21,11.12h5.08v6.94H81.45A3.86,3.86,0,0,0,77.6,21.91Z"/><path class="cls-3" d="M96.49,21.91v4.82h9.69l-2.56,7H96.49V63.17l-6.94,2.57V22.67A11.55,11.55,0,0,1,101.1,11.12h5.08v6.94h-5.84A3.86,3.86,0,0,0,96.49,21.91Z"/><path class="cls-3" d="M138.68,33.06l-7.61,6.33-2.7-5.71H118.11V64.45h-6.94V37.05l-5.71-2.71,6.33-7.61,4.82,5.8,5.35-5.8h9.11Z"/><path class="cls-3" d="M169.69,53.67V64.46H151a11.54,11.54,0,0,1-11.54-11.55V33.68l6.41-6.95h12.27a11.55,11.55,0,0,1,11.55,11.55Zm-6.95-16.14a3.85,3.85,0,0,0-3.85-3.85H146.4v20a3.85,3.85,0,0,0,3.85,3.85h12.49Z"/><path class="cls-3" d="M206.41,38.28V64.46h-6.95V37.53a3.85,3.85,0,0,0-3.85-3.85H183.12V64.46h-6.94V37.05l-5.71-2.71,6.32-7.61,4.82,5.8,5.36-5.8h7.89A11.55,11.55,0,0,1,206.41,38.28Z"/><path class="cls-3" d="M90.42,76.19c0,.06,0,2.06,0,2.22s0,.2,0,.3,0,.16-.09.16-.92,0-1,0-.22,0-.22-.2V74.53a5.78,5.78,0,0,0,0-.72c0-.26,0-.51,0-.77s0-.4,0-.61,0-.21.17-.21H90.4c.4,0,2.42,0,3.09,0A1.74,1.74,0,0,1,95.42,74a2.26,2.26,0,0,1-.2,1.12c-.5,1.33-2.35,1-3.46,1Zm0-1.24.12,0,.88,0h.19l.47,0c.23,0,.46,0,.69,0a6.15,6.15,0,0,0,.74-.06.68.68,0,0,0,.61-.47.77.77,0,0,0,0-.56.8.8,0,0,0-.63-.44,2.48,2.48,0,0,0-.27,0l-.66,0h-2l-.16,0C90.44,73.94,90.45,74.44,90.45,75Z"/><path class="cls-3" d="M106.71,78.87h-1.23a.32.32,0,0,1-.27-.13c-.14-.19-.29-.43-.43-.62-.35-.49-.66-1-1-1.47l-.32-.45c-.3,0-.58,0-.83,0h-1.14a.16.16,0,0,0-.16.16c0,.5,0,1.93,0,2.06a1.51,1.51,0,0,1,0,.3c0,.13,0,.16-.09.16s-1,0-1.07,0-.22,0-.21-.2c0-.44,0-3.63,0-4.14q0-.36,0-.72c0-.25,0-.51,0-.77s0-.4,0-.61,0-.21.17-.2h1.15c.41,0,2.42,0,3.1,0a2.09,2.09,0,0,1,1.3.4,2.12,2.12,0,0,1,.63,1.41,2.36,2.36,0,0,1-.2,1.11,1.52,1.52,0,0,1-1.07.92c.2.3.41.58.62.86s.42.68.65,1l.44.64a.6.6,0,0,1,.09.13C106.85,78.8,106.8,78.87,106.71,78.87ZM103.64,75a6.09,6.09,0,0,0,.74,0,.72.72,0,0,0,.62-.48.88.88,0,0,0,0-.6.72.72,0,0,0-.62-.39,1.26,1.26,0,0,0-.27,0l-.66,0h-2l-.17,0c0,.51,0,1,0,1.46l.11,0,.88,0h.2l.47,0C103.18,75,103.42,75,103.64,75Z"/><path class="cls-3" d="M112.65,76a7.27,7.27,0,0,0,0,1.6s0,0,0,0c.54,0,1,0,1.58,0s.9,0,1.38,0a7.85,7.85,0,0,0,1,0c.1,0,.14,0,.15.12,0,.25,0,.36,0,.62a.92.92,0,0,1,0,.16c0,.17.07.31-.1.31s-4.3,0-4.67,0h-.63a.19.19,0,0,1-.09-.19c0-.28,0-.55,0-.83,0-.62,0-1.28-.06-1.89,0-.22,0-.43,0-.64,0,0,0-.07,0-.11V73.55l0-1.07c0-.18.08-.25.25-.25h.89l3.71,0,.4,0h.2a.09.09,0,0,1,.08.08c0,.15,0,.63,0,.72a.64.64,0,0,1,0,.39c-.08.07-.16,0-.25,0h-.91c-.73,0-1.47,0-2.2,0h-.72s0,0,0,.08V74.8a.16.16,0,0,0,.16.06c.46,0,2.59,0,3.17,0h.11a.17.17,0,0,1,.13.13v.08c0,.26,0,.31,0,.56v.1c0,.17-.07.27-.22.27h-3.33Z"/><path class="cls-3" d="M124.63,78.88a.36.36,0,0,1-.14-.21c-.14-.56-.44-1.2-.63-1.74s-.38-1.2-.57-1.79c-.13-.41-.26-.81-.4-1.21a.27.27,0,0,0-.13-.21c0,.11,0,2.39,0,2.78,0,.17,0,.33,0,.5v1.71c0,.13,0,.16-.13.17h-1.12c-.07,0-.06-.1-.07-.18s0-.8,0-1.13c0-.68,0-1.36,0-2s0-1.42,0-2.12c0-.22,0-.43,0-.64s0-.22,0-.33.07-.21.15-.2c.52,0,1.53,0,1.85,0a.14.14,0,0,1,.14.09c.16.4.76,2.08,1,2.91.13.38.26,1.07.39,1.45a2.48,2.48,0,0,0,.13.3,1.18,1.18,0,0,0,.08-.16c.14-.46,1.14-3.23,1.26-3.62s.18-.52.26-.78,0-.18.16-.19h1.9a.23.23,0,0,1,.07.07s0,0,0,.08c0,1,0,6,0,6.28a.39.39,0,0,1,0,.18l-.1,0h-1a.13.13,0,0,1-.12-.1,1.25,1.25,0,0,1,0-.19c0-.43,0-3.69,0-4.73a0,0,0,0,0-.08,0,.61.61,0,0,1,0,.14l-.21.6c-.21.57-.41,1.14-.63,1.71-.28.73-.57,1.59-.8,2.34v0c-.09.25-.06.22-.25.22A6.78,6.78,0,0,0,124.63,78.88Z"/><path class="cls-3" d="M135.16,72.24c.05,0,.09.07.09.1a8.29,8.29,0,0,1,0,.86c0,.18,0,.36,0,.55a2.81,2.81,0,0,1,0,.41c0,.34,0,.68,0,1,0,.51,0,1,0,1.49,0,.31,0,.62,0,.94s0,.66,0,1c0,0,0,.05,0,.08s0,.2-.1.2c-.28,0-.81,0-1.11,0H134a.15.15,0,0,1-.14-.14v-.08c0-.59,0-3.67,0-4.58,0-.46,0-.9,0-1.36a1.93,1.93,0,0,1,0-.24.2.2,0,0,1,.19-.23h1.13Z"/><path class="cls-3" d="M140.14,72.24a3.53,3.53,0,0,1,.65,0h.69a.49.49,0,0,1,.06.29c0,.59-.07,3,0,3.53a2.31,2.31,0,0,0,.2.9,1.38,1.38,0,0,0,.89.66,1.8,1.8,0,0,0,1.38-.19c.48-.32.48-.88.5-1.41,0-.37,0-1.46,0-1.61,0-.53,0-1.07,0-1.61a3.17,3.17,0,0,0,0-.43c0-.08,0-.14.1-.13.37,0,.87,0,1.25,0a.07.07,0,0,1,.06.07s0,.1,0,.13c.05.69,0,3.1,0,3.43a5.38,5.38,0,0,1-.18,1.49A2.46,2.46,0,0,1,143.48,79a4.15,4.15,0,0,1-1.6-.14,2.53,2.53,0,0,1-1.8-2.8c0-.24-.05-1.27,0-1.51s0-.53,0-.8,0-.87,0-1.2A.51.51,0,0,1,140.14,72.24Z"/><path class="cls-3" d="M153.89,78.88a.3.3,0,0,1-.13-.21c-.15-.56-.45-1.2-.64-1.74s-.37-1.2-.56-1.79c-.13-.41-.27-.81-.4-1.21,0-.07,0-.16-.13-.21,0,.11,0,2.39,0,2.78,0,.17,0,.33,0,.5v1.71c0,.13,0,.16-.13.17h-1.12c-.08,0-.07-.1-.07-.18s0-.8,0-1.13c0-.68,0-1.36,0-2V73.41c0-.22,0-.43,0-.64s0-.22,0-.33.07-.21.15-.2c.51,0,1.53,0,1.85,0a.13.13,0,0,1,.13.09c.16.4.77,2.08,1.05,2.91.13.38.26,1.07.39,1.45a2.63,2.63,0,0,0,.14.3,1,1,0,0,0,.07-.16c.14-.46,1.15-3.23,1.26-3.62s.19-.52.27-.78,0-.18.16-.19h1.89a.16.16,0,0,1,.07.07.19.19,0,0,1,0,.08c0,1,0,6,0,6.28a.39.39,0,0,1,0,.18l-.09,0h-1a.11.11,0,0,1-.11-.1.63.63,0,0,1,0-.19c0-.43,0-3.69,0-4.73a0,0,0,0,0-.08,0c0,.07,0,.12,0,.14-.08.2-.14.4-.22.6-.2.57-.4,1.14-.62,1.71-.29.73-.58,1.59-.8,2.34,0,0,0,0,0,0-.09.25-.06.22-.25.22A6.78,6.78,0,0,0,153.89,78.88Z"/><path class="cls-3" d="M172,76a7.27,7.27,0,0,0,.05,1.6s0,0,0,0c.54,0,1,0,1.57,0s.91,0,1.39,0a7.85,7.85,0,0,0,1,0,.12.12,0,0,1,.15.12c0,.25,0,.36,0,.62,0,0,0,.11,0,.16s.07.31-.1.31-4.3,0-4.67,0h-.63a.19.19,0,0,1-.09-.19c0-.28,0-.55,0-.83,0-.62,0-1.28-.06-1.89,0-.22,0-.43,0-.64,0,0,0-.07,0-.11V73.55l0-1.07c0-.18.07-.25.25-.25h.88l3.72,0,.4,0h.2a.09.09,0,0,1,.08.08c0,.15,0,.63,0,.72a.64.64,0,0,1-.05.39.33.33,0,0,1-.25,0h-.91c-.74,0-1.47,0-2.21,0H172s0,0,0,.08V74.8a.16.16,0,0,0,.16.06c.46,0,2.59,0,3.17,0h.11a.16.16,0,0,1,.12.13.25.25,0,0,1,0,.08v.66c0,.17-.07.27-.22.27H172Z"/><path class="cls-3" d="M187.09,78.87H185.8c-.1,0-.1,0-.14-.14-.14-.31-.34-1-.49-1.27l0,0a.88.88,0,0,0-.32,0c-.13,0-1.88,0-2.07,0h-.41c-.18.38-.43,1-.61,1.44a.09.09,0,0,1-.08.05h-1.18c-.2,0-.23-.06-.16-.25s.23-.56.37-.86c.4-.89,1.47-3.55,1.64-4,.1-.25.57-1.31.59-1.36s.12-.19.21-.2a1.62,1.62,0,0,1,.22,0,1.5,1.5,0,0,1,.3,0h.49c.16,0,.3,0,.45,0l0,.07c.16.38.34.76.48,1.15s.42,1,.57,1.41c.29.82.62,1.51.93,2.32.16.42.32.81.5,1.21l.16.35C187.32,78.85,187.22,78.87,187.09,78.87Zm-2.29-2.7c-.24-.75-.7-1.84-1-2.62-.16.28-.76,1.82-.85,2s-.09.18-.23.54a.05.05,0,0,0,.05.07c.11,0,1.88,0,1.94,0h.05S184.81,76.19,184.8,76.17Z"/><path class="cls-3" d="M196.67,73.39a.07.07,0,0,1-.07.09c-.1,0-1.58,0-1.73,0l-.59,0a.12.12,0,0,0-.12.12c0,.48,0,2.44,0,3.33,0,.32,0,.63,0,.94s0,.58,0,.86c0,.1-.05.13-.14.13h-1.11a.17.17,0,0,1-.15-.16c0-.67,0-3,0-3.63,0-.38,0-.87,0-1.26v-.25a.07.07,0,0,0-.06-.07c-.36,0-1.82,0-2.26,0l-.11,0c-.06,0-.1,0-.1-.12s0-1,0-1.11l.15,0h6.18c.06,0,.12.11.12.18S196.63,73.19,196.67,73.39Z"/><path class="cls-3" d="M201.83,76.82a.33.33,0,0,1,.1.06,3.47,3.47,0,0,0,2.84.81,2.1,2.1,0,0,0,.72-.27.69.69,0,0,0,.3-.35.74.74,0,0,0-.4-.81,4.33,4.33,0,0,0-1.18-.23c-.4,0-.81,0-1.21-.1a3.37,3.37,0,0,1-1.07-.31,1.62,1.62,0,0,1-.91-1.45,1.58,1.58,0,0,1,.72-1.42,3.27,3.27,0,0,1,1.18-.55,4.34,4.34,0,0,1,3.28.51c.22.15.38.3.59.46a.47.47,0,0,1,.13.15.11.11,0,0,1,0,.08.21.21,0,0,0,0,.06c-.08.05-.44.41-.65.57s-.21.12-.37,0l-.54-.38a2.79,2.79,0,0,0-1.93-.3,1.59,1.59,0,0,0-.84.41.49.49,0,0,0,.08.77,2.4,2.4,0,0,0,1.06.22,6.4,6.4,0,0,1,2.59.54,1.73,1.73,0,0,1,.9,1.71,1,1,0,0,1-.15.48,2.82,2.82,0,0,1-.58.83l-.2.13a5.28,5.28,0,0,1-.84.38l-.23.06a5.69,5.69,0,0,1-1.3.09,6.07,6.07,0,0,1-2.68-.88c-.1-.06-.26-.21-.36-.28s-.14-.16,0-.29l.17-.15.75-.52Z"/></g></g></svg>