<svg xmlns="http://www.w3.org/2000/svg" viewBox="0 0 265.95 265.95"><defs><style>.cls-1,.cls-3{fill:#6c2874;}.cls-2{fill:none;stroke:#6c2874;stroke-miterlimit:10;stroke-width:3px;}.cls-3{opacity:0.31;}</style></defs><g id="Layer_2" data-name="Layer 2"><g id="Layer_2-2" data-name="Layer 2"><path class="cls-1" d="M65.65,194.1a6.18,6.18,0,0,1,3-.84,2.45,2.45,0,0,1,.54,0,6.11,6.11,0,0,1,3.5,1.66c.56.56,1.12,1.12,1.7,1.66s1.21,1.09,1.82,1.63l.11,0a2.85,2.85,0,0,0,.73-.63,18.38,18.38,0,0,1,1.77-1.87c.12-.11.2-.24.31-.36s.35-.37.54-.57l2.41,2.26a.42.42,0,0,1-.12.16c-1,.92-2,2-2.89,3S77,202.4,76,203.52s-2.07,2.22-3.11,3.33l-2,2.08c-.1.1-.21.18-.37.31l-2.17-2-.35-.34-.42-.38-3.12-2.93a11.42,11.42,0,0,1-.9-1.15,5.44,5.44,0,0,1-.93-3.22,5.63,5.63,0,0,1,.75-2.85A6.92,6.92,0,0,1,65.65,194.1Zm.4,4a1,1,0,0,1-.09.18,2.47,2.47,0,0,0,.09,2.11,7,7,0,0,0,.89,1.28c.3.36.66.67,1,1l1.6,1.56a5.86,5.86,0,0,0,.44.42.35.35,0,0,0,.49,0l.23-.25,1.59-1.69h0c.59-.63,1.19-1.26,1.77-1.89.19-.2.18-.32,0-.52-.59-.56-1.17-1.13-1.77-1.69a18.4,18.4,0,0,0-2-1.66,2.64,2.64,0,0,0-1.86-.52,3.15,3.15,0,0,0-.85.23A2.39,2.39,0,0,0,66.05,198.1Z"/><path class="cls-1" d="M57.25,174.82c.08.11.13.22.29.44a6.08,6.08,0,0,0,.36-1.41,3.91,3.91,0,0,1,.08-.61,13.37,13.37,0,0,0,.31-1.53c.21-1.11.43-2.23.66-3.34a.47.47,0,0,1,0-.17l2.23,3.72a.64.64,0,0,1,0,.07c-.25,1.09-.49,2.17-.73,3.26s-.44,2-.69,3a1.15,1.15,0,0,0,0,.93c.22.34,1,1.69,1.14,1.87a2.29,2.29,0,0,0,.35-.19l1.17-.69,2.44-1.36a2,2,0,0,1,.28-.11l.06,0,1.43,2.38s0,0,0,.08a1.29,1.29,0,0,1-.53.39l-3.58,2.11-.93.56c-.49.3-1,.53-1.5.81-1.23.68-2.43,1.41-3.65,2.11-.47.27-1,.51-1.43.77l-.29.17c-.78.56-1.67.9-2.51,1.48a4.5,4.5,0,0,1-.33-.44h0l-1.13-1.89-3.32-5.55a6.91,6.91,0,0,1-.81-3.2,5.69,5.69,0,0,1,1.23-3.67,6.1,6.1,0,0,1,2.92-2,5.81,5.81,0,0,1,2.49-.18,5.9,5.9,0,0,1,2.8,1.13A4.83,4.83,0,0,1,57.25,174.82Zm-2.43,1.52a3.07,3.07,0,0,0-2.29-.67A2.76,2.76,0,0,0,50,177.45a3.15,3.15,0,0,0,0,2.26,6.6,6.6,0,0,0,.5,1.12Q51.76,183,53,185.11a3.54,3.54,0,0,0,.27.32c1.06-.46,2-1.14,3-1.64.77-.38,1.61-.95,2.36-1.39,0-.13,0-.18,0-.21-.27-.55-.66-1-1-1.56-.52-.9-1-1.81-1.59-2.69a16.56,16.56,0,0,0-1-1.38A1,1,0,0,0,54.82,176.34Z"/><path class="cls-1" d="M48.22,159.1l.45-.08,2.77-.74.26-.07c.34-.12.42-.26.32-.63-.3-1.14-.61-2.28-.92-3.41-.07-.27-.18-.52-.26-.77a1,1,0,0,1-.1-.33,1.39,1.39,0,0,0-.2-.71.4.4,0,0,1-.07-.19c-.13-.73-.42-1.43-.55-2.16a3.44,3.44,0,0,0-.22-.71,3.39,3.39,0,0,1-.15-.45.31.31,0,0,1,.19-.39,5.45,5.45,0,0,1,.55-.25,2.39,2.39,0,0,1,.46-.12,12.78,12.78,0,0,1,1.7-.34c.14.49.21.78.31,1.18.38,1.4.74,2.8,1.12,4.21.26,1,.55,2,.82,3,.34,1.22.69,2.45,1,3.68.14.55.07.61-.47.75l-3.28.89L47,162.74l-4.41,1.19-2.78.74c-.24-.12-.25-.32-.29-.48-.32-1.16-.63-2.33-.95-3.49-.59-2.19-2.17-8-2.27-8.41s0-.28.23-.39a.81.81,0,0,1,.25-.08,18.33,18.33,0,0,0,1.85-.36.4.4,0,0,1,.52.31c.14.46.26.92.39,1.38.29,1.07.57,2.14.86,3.21s.56,2.11.85,3.16c.06.24.13.48.2.72.17.55.22.58.76.45l.73-.2,1.39-.32a3.2,3.2,0,0,0,.89-.36,17.3,17.3,0,0,0-.43-1.79c-.15-.57-.31-1.14-.47-1.7s-.32-1.18-.49-1.78-.3-1.13-.47-1.73a1.88,1.88,0,0,1,.36-.2,6.83,6.83,0,0,1,1.35-.42c.15,0,.3-.08.45-.11A1.93,1.93,0,0,1,46,152c.18,0,.27.08.33.28.12.39.22.79.33,1.18.48,1.75,1,3.51,1.43,5.26C48.12,158.82,48.16,158.93,48.22,159.1Z"/><path class="cls-1" d="M42.46,125.48a6,6,0,0,1,2.66,1.69,2.72,2.72,0,0,1,.34.42,6,6,0,0,1,1.12,3.71c0,.79-.08,1.58-.09,2.37s0,1.63,0,2.44c0,0,0,0,.06.11a2.88,2.88,0,0,0,1,.12,18.52,18.52,0,0,1,2.58,0c.16,0,.31,0,.47,0h.79l0,3.31a.48.48,0,0,1-.21,0c-1.37-.14-2.75-.12-4.13-.15s-3-.08-4.55-.09l-4.55-.07L35,139.35a3.18,3.18,0,0,1-.47-.06l.05-3c0-.16,0-.33,0-.49v-.56l.07-4.28a11.9,11.9,0,0,1,.26-1.45,5.38,5.38,0,0,1,1.75-2.85,5.56,5.56,0,0,1,2.62-1.36A7,7,0,0,1,42.46,125.48Zm-2.7,3a1.17,1.17,0,0,1-.2.05,2.5,2.5,0,0,0-1.5,1.48,7.8,7.8,0,0,0-.35,1.52c-.06.47-.05.94-.07,1.42,0,.74-.06,1.48-.09,2.23,0,.2,0,.41,0,.61a.35.35,0,0,0,.34.35h.34l2.32,0h0l2.58,0c.27,0,.36-.09.37-.37,0-.81,0-1.63.06-2.45a17.13,17.13,0,0,0-.1-2.58,2.6,2.6,0,0,0-.86-1.72,2.73,2.73,0,0,0-.74-.47A2.33,2.33,0,0,0,39.76,128.47Z"/><path class="cls-1" d="M37.57,109.35a2.87,2.87,0,0,1,0-.4c.15-.59.31-1.18.47-1.77s.18-.55.67-.6,1.22-.12,1.83-.2l5.25-.73,4.11-.52c1-.13,1.92-.28,2.88-.42l1.35-.2,1.48-.2a2,2,0,0,1,.42,0,1.79,1.79,0,0,1,0,.36l-.69,2.66a.18.18,0,0,1-.17.14,25.56,25.56,0,0,0-3,.37,5.48,5.48,0,0,1-.57.05.48.48,0,0,0-.51.41c-.19.77-.4,1.53-.61,2.3-.17.59-.36,1.17-.53,1.76s-.37,1.35-.56,2a.54.54,0,0,0,.22.65l1.74,1.33,1,.73a.54.54,0,0,1,.24.64c-.22.77-.68,2.61-.7,2.68s-3.83-2.87-4.72-3.53-2-1.61-3.06-2.37c-.24-.17-.46-.35-.69-.54-.87-.69-1.72-1.4-2.59-2.08s-1.62-1.25-2.42-1.87Zm4.72-.18a1.57,1.57,0,0,0,.22.29c.3.25.59.5.89.73l3,2.35c.62.48.71.46.92-.3.3-1.09.59-2.19.88-3.28,0-.11.06-.22.08-.33s0-.23-.13-.28l-1.94.27c-.63.08-1.27.13-1.89.23S43,109,42.29,109.17Z"/><path class="cls-1" d="M60.23,86.16c-.06.12-.13.22-.25.46a5.82,5.82,0,0,0,1.41-.35,4.37,4.37,0,0,1,.57-.21,14.48,14.48,0,0,0,1.5-.45c1.08-.35,2.17-.67,3.25-1l.18,0-2.23,3.73-.07,0-3.22.89c-1,.27-2,.55-2.95.8a1.12,1.12,0,0,0-.8.48c-.2.36-1,1.7-1.11,1.89a2.7,2.7,0,0,0,.33.22L58,93.3l2.36,1.5a1.57,1.57,0,0,1,.23.2s0,0,0,.06l-1.42,2.38-.06,0a1.36,1.36,0,0,1-.61-.28L55,95.05,54,94.49c-.49-.28-.94-.63-1.42-.93-1.18-.76-2.39-1.48-3.59-2.22l-1.35-.9-.29-.17c-.85-.43-1.58-1-2.49-1.52.11-.22.16-.37.24-.5h0c.22-.35.63-1,1.13-1.89l3.32-5.54A6.79,6.79,0,0,1,52,78.58a5.63,5.63,0,0,1,3.81-.65A6,6,0,0,1,59,79.55a5.68,5.68,0,0,1,1.34,2.1,5.84,5.84,0,0,1,.33,3A5,5,0,0,1,60.23,86.16Zm-2.49-1.43a3.14,3.14,0,0,0-.49-2.33A2.79,2.79,0,0,0,54.49,81a3.17,3.17,0,0,0-2,1.07,5.92,5.92,0,0,0-.74,1q-1.3,2.11-2.59,4.24a1.88,1.88,0,0,0-.15.38c.91.72,1.94,1.2,2.85,1.86.7.49,1.59,1,2.34,1.41.11-.06.16-.08.18-.11.35-.5.58-1.07.91-1.59.56-.88,1.11-1.76,1.63-2.67.28-.48.5-1,.74-1.52A1.23,1.23,0,0,0,57.74,84.73Z"/><path class="cls-1" d="M69.78,70.77c.12.15.2.26.29.36l2,2.09.19.19c.27.25.42.25.7,0L75.5,71c.19-.19.36-.4.55-.6a1.05,1.05,0,0,1,.23-.24,1.33,1.33,0,0,0,.53-.52l.14-.15c.58-.46,1.06-1,1.64-1.51a3.26,3.26,0,0,0,.52-.53,3.51,3.51,0,0,1,.33-.34.3.3,0,0,1,.43,0,5.71,5.71,0,0,1,.48.38,1.47,1.47,0,0,1,.32.34c.28.44.88.82,1.12,1.34l-.89.83c-1.06,1-2.13,2-3.18,3-.74.7-1.47,1.42-2.2,2.13L72.75,77.7c-.41.38-.5.34-.88-.06l-2.34-2.47L66,71.44l-3.14-3.31-2-2.1c0-.26.16-.36.29-.48l2.62-2.49,6.33-6c.18-.17.24-.13.44,0a.72.72,0,0,1,.2.19A16.48,16.48,0,0,0,72,58.72a.39.39,0,0,1,0,.6l-1,1-2.41,2.29c-.8.74-1.59,1.49-2.38,2.24l-.54.52c-.4.42-.41.48,0,.89.17.19.35.36.52.54.31.36.63.71.94,1.08a3.44,3.44,0,0,0,.74.61c.5-.38.92-.82,1.37-1.23L70.39,66l1.33-1.27L73,63.53a2.69,2.69,0,0,1,.35.21,7.87,7.87,0,0,1,1,1c.1.12.22.22.32.34a2.48,2.48,0,0,1,.29.37c.09.15.06.27-.09.42s-.59.57-.89.85l-3.94,3.75Z"/><path class="cls-1" d="M88.29,64.31a7.36,7.36,0,0,1-.35-.67c-.69-1.34-1.4-2.67-2-4-.37-.8-.74-1.59-1.15-2.37-.68-1.32-1.38-2.63-2.06-4-.34-.66-.65-1.33-1-2-.23-.46-.47-.92-.69-1.38-.08-.16-.15-.32-.21-.46s.26-.29.41-.37c1.72-.89,5.92-3.06,6.29-3.29a8.15,8.15,0,0,1,3-.94,3.11,3.11,0,0,1,.61,0,8.4,8.4,0,0,1,2.84.53,8.56,8.56,0,0,1,3,2A7.82,7.82,0,0,1,98.5,49.4a7.92,7.92,0,0,1,.91,3.42A11.67,11.67,0,0,1,99.27,55a8.65,8.65,0,0,1-1.42,3.33,6,6,0,0,1-1.67,1.74,4,4,0,0,1-.34.22C94.73,60.91,88.48,64.23,88.29,64.31Zm1.33-4.26a.8.8,0,0,0,.63-.17c.93-.48,1.85-1,2.78-1.44a6.54,6.54,0,0,0,1.19-.77,5.5,5.5,0,0,0,1.93-3,5.4,5.4,0,0,0-2.47-6.08,7.28,7.28,0,0,0-1-.44,5,5,0,0,0-4.14.27l-1.64.82-2,1c-.22.11-.26.23-.15.45.17.37.36.73.55,1.09.73,1.43,1.49,2.85,2.18,4.3.54,1.15,1.15,2.26,1.71,3.4A1.41,1.41,0,0,0,89.62,60.05Z"/><path class="cls-1" d="M147.32,35.12c-.09.37-.26.71-.34,1.1a3.86,3.86,0,0,1-.45,1,.65.65,0,0,0-.11.32,1.84,1.84,0,0,1-.23.83c-.22.55-.41,1.1-.62,1.65-.07.18-.2.35-.27.53-.22.55-.42,1.1-.62,1.65-.53,1.45-1.05,2.9-1.6,4.34a4.23,4.23,0,0,0-.36,1.16c0,.35-.3.6-.41.92-.27.81-.57,1.62-.86,2.42l-.22.6h-.09l-2.74-.08a2,2,0,0,1-.14-.3,14.7,14.7,0,0,0-.67-2.07c-.1-.25-.14-.52-.23-.78-.33-1-.66-2.39-1-3.4-.17-.54-.32-1.09-.49-1.63,0-.17,0-.36-.25-.45l-.06,0a.12.12,0,0,0,0,0,.39.39,0,0,0-.06.11c-.85,2.61-1.71,5.59-2.57,8.22l-.1.07-3.07-.09a1.05,1.05,0,0,1-.13-.31c-.27-.84-.59-1.66-.83-2.51s-.6-1.71-.85-2.58c-.39-1.34-.9-2.66-1.32-4-.19-.62-.4-1.24-.62-1.86s-.32-.94-.47-1.42a15.16,15.16,0,0,1-.47-1.49,14.64,14.64,0,0,0-.48-1.41c-.12-.32-.23-.64-.32-1s0-.34.19-.37l2.23.06h.19l.63,0,.17,0a15.05,15.05,0,0,1,.64,2c.13.52.31,1,.49,1.55.6,1.73,1.13,3.49,1.64,5.25.21.72.43,1.44.65,2.15,0,.13.08.27.3.25a3.17,3.17,0,0,0,.17-.41c.27-1,.59-1.95.95-2.9.16-.4.27-.81.39-1.22.23-.74.31-1.5.6-2.21s.37-1.16.57-1.73a19.69,19.69,0,0,0,.61-2.08c0-.11.08-.21.11-.32a.46.46,0,0,1,.07-.14l1.94.05A.67.67,0,0,1,137,35c.18.61.35,1.22.52,1.83.25.85.24,1.71.56,2.54s.39,1.64.66,2.45c.4,1.18.72,2.39,1.08,3.58,0,.06.07.11.11.15s.2-.1.24-.21c.15-.42.29-.85.44-1.28.25-.68.5-1.36.74-2l.75-2c.21-.57.44-1.14.64-1.72s.43-1.37.69-2c.16-.4.31-.8.44-1.2a.47.47,0,0,1,.08-.14l3.41.1A.2.2,0,0,1,147.32,35.12Z"/><path class="cls-1" d="M161.72,39.31l-1.61,5.45c-.43,1.48-.86,3-1.3,4.46-.08.28-.2.56-.3.84,0,.13-.08.26-.11.4l-.21.72c0,.16-.09.31-.14.46A1.69,1.69,0,0,1,158,52a7.14,7.14,0,0,0-.5,1.5c-.14.5-.29,1-.46,1.52l-2.83-.82a1.71,1.71,0,0,1,0-.3l1.29-4.38c.19-.66.34-1.35.59-2s.28-1.06.48-1.57a14.49,14.49,0,0,0,.5-1.58c.11-.38.18-.76.28-1.14s.25-.78.38-1.17a5.53,5.53,0,0,0,.2-.66,11.52,11.52,0,0,1,.45-1.52c.15-.51.31-1,.47-1.52,0-.09.07-.17.1-.24l2.77.8A.61.61,0,0,1,161.72,39.31Z"/><path class="cls-1" d="M186.25,51.13a5.31,5.31,0,0,0-.52.86,4.79,4.79,0,0,1-.48.69c-1.06-.58-4.58-2.52-5.56-3a1.8,1.8,0,0,0-.26.3c-.3.51-.57,1-.86,1.54-1.34,2.29-2.72,4.77-4,7.11-.54,1-1.11,2-1.66,3a.49.49,0,0,1-.12.15l-3-1.62c.17-.34.31-.64.47-.93.58-1.06,1.23-2.28,1.83-3.32S173.22,54,173.75,53s1.09-1.94,1.63-2.91c.29-.54.58-1.07.87-1.62.08-.15.14-.32.22-.5-.09-.08-.15-.15-.22-.2-.59-.33-4-2.13-4.49-2.4s-.59-.42-.28-.94a12.71,12.71,0,0,0,.77-1.4.9.9,0,0,1,.32-.46l14,7.55A1.37,1.37,0,0,1,186.25,51.13Z"/><path class="cls-1" d="M198.39,73.07c-.42-.5-5.83-5.9-6.19-6.17a.59.59,0,0,0-.2-.07,8.62,8.62,0,0,0-1,.93c-.34.34-.73.62-1.06.95s-.63.65-1,1-.63.65-1,1l-1,1c-.14-.09-.29-.13-.36-.22-.56-.68-1.28-1.26-1.92-1.9,0-.09.19-.19.23-.23.59-.6,1.19-1.13,1.75-1.75a10.39,10.39,0,0,0,1.1-1.1,1.35,1.35,0,0,1,.3-.28c.08-.07.2-.11.26-.2a7.11,7.11,0,0,1,1.28-1.29l0,0c.73-1,1.8-1.66,2.56-2.63a4.48,4.48,0,0,1,.36-.4c.21-.2.43-.39.64-.6l1.19-1.21a2.66,2.66,0,0,1,.26-.31,6.94,6.94,0,0,0,1.52-1.54.5.5,0,0,1,.21-.17.77.77,0,0,1,.26,0s0,0,.05,0l1.84,1.81a2.13,2.13,0,0,1,.17.25c-.47.57-1,1-1.51,1.56L195.74,63l-1.56,1.58a.94.94,0,0,0,.14.26c1,1,2.05,2.11,3.1,3.14.71.7,1.39,1.44,2.11,2.13l.87.84a1.52,1.52,0,0,0,.72-.53c.83-.81,1.62-1.65,2.43-2.48.4-.41.82-.83,1.23-1.23.09-.09.19-.19.3-.28a.27.27,0,0,1,.42,0l1.93,1.92c0,.11,0,.22-.08.27-.33.27-.57.69-.94.92a1.6,1.6,0,0,0-.43.43c-.35.47-.86.79-1.17,1.3a.32.32,0,0,1-.15.13,3.16,3.16,0,0,0-.95.87,13,13,0,0,1-1.31,1.26c-.37.33-.7.7-1.05,1-.1.09-.18.21-.28.3-.87.89-1.75,1.78-2.64,2.65-.31.3-.52.55-.83.83s-.78.83-1.2,1.2a2.73,2.73,0,0,0-.38.38c-.25.27-.43.29-.68,0s-1.34-1.31-1.68-1.66-.19-.35,0-.54a12.4,12.4,0,0,1,1.6-1.47,1.09,1.09,0,0,0,.24-.24c.42-.47.8-.84,1.26-1.27s1-1,1.55-1.53A.76.76,0,0,0,198.39,73.07Z"/><path class="cls-1" d="M218.72,110.19c-.14-.63-2.43-7.92-2.63-8.33,0-.06-.08-.1-.14-.16a9.69,9.69,0,0,0-1.3.38c-.45.14-.93.21-1.38.35s-.85.28-1.29.39-.87.28-1.32.42l-1.32.4a1.84,1.84,0,0,1-.22-.36,25.48,25.48,0,0,0-.82-2.57,1,1,0,0,1,.32-.1c.8-.25,1.57-.45,2.36-.74a9.78,9.78,0,0,0,1.48-.47,1.72,1.72,0,0,1,.39-.1,1.63,1.63,0,0,0,.33,0,7.14,7.14,0,0,1,1.73-.56l.07,0c1.1-.55,2.35-.63,3.47-1.13a3.52,3.52,0,0,1,.51-.19c.28-.09.57-.15.85-.24l1.61-.52a3,3,0,0,1,.38-.15,7.09,7.09,0,0,0,2.06-.66.48.48,0,0,1,.26,0c.08,0,.15.08.23.12s0,0,0,.07c.26.82.53,1.64.79,2.46a1.82,1.82,0,0,1,0,.3c-.68.28-1.38.47-2.07.68l-2.07.67-2.12.67a1,1,0,0,0,0,.3c.43,1.41.84,2.82,1.29,4.22.31,1,.56,1.91.88,2.85.13.39.26.77.38,1.16a1.54,1.54,0,0,0,.89-.14c1.11-.34,2.2-.71,3.3-1.07l1.65-.52.4-.11a.28.28,0,0,1,.37.2c.1.28.59,1.9.82,2.6-.07.08-.12.19-.19.2a9.14,9.14,0,0,1-1.26.38,1.7,1.7,0,0,0-.58.18c-.53.26-1.14.3-1.64.61a.35.35,0,0,1-.2,0,3.12,3.12,0,0,0-1.24.32,12,12,0,0,1-1.74.52c-.48.12-1,.29-1.43.44l-.38.14c-1.19.38-2.37.77-3.57,1.12-.41.12-.71.24-1.12.35s-1.07.37-1.62.5l-.51.16c-.35.14-.51.06-.61-.28l-.73-2.25c-.08-.28,0-.39.26-.47a11,11,0,0,1,2.09-.57,1.39,1.39,0,0,0,.33-.1c.59-.22,1.1-.37,1.71-.54s1.38-.42,2.08-.64C218.62,110.29,218.65,110.25,218.72,110.19Z"/><path class="cls-1" d="M221.45,127l-.46,0-2.86.08h-.28c-.36,0-.46.16-.45.54,0,1.18.06,2.36.1,3.53,0,.28.06.54.09.81a1.32,1.32,0,0,1,0,.34,1.43,1.43,0,0,0,0,.74.44.44,0,0,1,0,.2c0,.75.08,1.49,0,2.23a3.08,3.08,0,0,0,.06.74,3.83,3.83,0,0,1,0,.47.32.32,0,0,1-.27.35,5.58,5.58,0,0,1-.59.1,1.87,1.87,0,0,1-.47,0,12.91,12.91,0,0,1-1.75-.06c0-.51,0-.81,0-1.22,0-1.45-.07-2.9-.11-4.35,0-1-.09-2-.13-3.06,0-1.27-.1-2.55-.14-3.82,0-.57.08-.61.63-.63l3.4-.1,5.12-.16,4.56-.14,2.89-.08c.2.16.16.36.17.53,0,1.2.07,2.4.11,3.61.08,2.26.27,8.34.28,8.71s-.07.27-.31.32a.83.83,0,0,1-.27,0,16.79,16.79,0,0,0-1.88-.08.39.39,0,0,1-.43-.42c0-.48,0-1-.06-1.43,0-1.11-.07-2.22-.1-3.33s-.07-2.17-.1-3.26l0-.75c0-.58-.08-.62-.64-.62-.25,0-.5,0-.75,0h-1.43a3.19,3.19,0,0,0-1,.15c0,.62,0,1.23,0,1.84s0,1.18.06,1.77,0,1.22.07,1.83,0,1.18.06,1.8c-.15,0-.27.1-.39.12a7.43,7.43,0,0,1-1.41.09,3.85,3.85,0,0,0-.48,0,3.55,3.55,0,0,1-.46,0c-.18,0-.24-.14-.25-.35,0-.41,0-.82-.05-1.23l-.18-5.44C221.48,127.32,221.47,127.21,221.45,127Z"/><path class="cls-1" d="M228.8,154.83a2.87,2.87,0,0,1-.05.4c-.14.59-.29,1.19-.43,1.78s-.17.55-.67.61-1.21.14-1.81.23l-5.24.83c-1.37.2-2.74.38-4.1.59l-2.88.47-1.34.23-1.48.23a2.92,2.92,0,0,1-.42,0,3.46,3.46,0,0,1,0-.37l.65-2.67a.18.18,0,0,1,.17-.14,27.74,27.74,0,0,0,2.94-.42,3.68,3.68,0,0,1,.57-.06.49.49,0,0,0,.5-.42q.27-1.17.57-2.31c.15-.6.34-1.18.49-1.77s.35-1.36.53-2a.55.55,0,0,0-.23-.65l-1.77-1.3-1-.71a.56.56,0,0,1-.26-.64c.21-.76.64-2.62.65-2.69s3.89,2.8,4.79,3.45,2.05,1.57,3.1,2.3l.71.53c.87.68,1.74,1.37,2.63,2s1.63,1.22,2.45,1.83Zm-4.72.26c-.12-.15-.16-.23-.22-.29-.3-.24-.6-.48-.91-.71l-3-2.29c-.63-.47-.72-.45-.91.31-.28,1.1-.55,2.2-.82,3.3,0,.11-.06.23-.08.34a.21.21,0,0,0,.14.27l1.94-.3c.62-.09,1.26-.16,1.88-.27A19.26,19.26,0,0,0,224.08,155.09Z"/><path class="cls-1" d="M206.6,178.41c.05-.12.12-.22.23-.47a5.94,5.94,0,0,0-1.4.38,5.65,5.65,0,0,1-.57.23,13.52,13.52,0,0,0-1.49.47c-1.07.37-2.15.71-3.23,1.07a.85.85,0,0,1-.17,0l2.16-3.76.07,0c1.07-.3,2.13-.63,3.19-.94s2-.59,2.94-.86a1.12,1.12,0,0,0,.79-.5c.19-.37,1-1.72,1.07-1.91a2,2,0,0,0-.33-.21c-.39-.24-.79-.46-1.18-.69l-2.38-1.46a1.55,1.55,0,0,1-.24-.19.2.2,0,0,0,0-.07l1.38-2.4.06-.05a1.25,1.25,0,0,1,.61.27l3.59,2.09.94.54c.5.28,1,.61,1.44.91,1.19.74,2.42,1.43,3.63,2.15.46.27.91.58,1.37.87l.29.17c.86.4,1.6,1,2.52,1.47a5.12,5.12,0,0,1-.23.5h0c-.21.36-.62,1.06-1.1,1.91l-3.21,5.61a6.79,6.79,0,0,1-2.4,2.27,5.63,5.63,0,0,1-3.79.72A6,6,0,0,1,208,185a5.7,5.7,0,0,1-1.38-2.08,6,6,0,0,1-.39-3A5.31,5.31,0,0,1,206.6,178.41Zm2.51,1.38a3.11,3.11,0,0,0,.53,2.32,2.79,2.79,0,0,0,2.79,1.33,3.2,3.2,0,0,0,2-1.11,6.34,6.34,0,0,0,.72-1c.85-1.43,1.68-2.86,2.51-4.29.06-.11.09-.24.15-.38-.93-.71-2-1.17-2.89-1.81-.71-.48-1.61-.93-2.37-1.37-.1.07-.16.08-.18.12-.34.51-.56,1.08-.88,1.6-.54.89-1.07,1.79-1.58,2.7-.27.49-.48,1-.71,1.54A1.21,1.21,0,0,0,209.11,179.79Z"/><path class="cls-1" d="M194.94,208.44a4.4,4.4,0,0,0-.67-.76,4,4,0,0,1-.5-.67c.87-.84,3.78-3.6,4.5-4.41a2.06,2.06,0,0,0-.2-.33c-.4-.44-.82-.85-1.22-1.29-1.78-2-3.73-4-5.58-5.93-.79-.81-1.56-1.64-2.33-2.47a.46.46,0,0,1-.11-.16l2.45-2.38c.27.26.52.49.75.73.83.86,1.8,1.86,2.61,2.74s1.49,1.64,2.26,2.44,1.52,1.61,2.29,2.42l1.28,1.32a5,5,0,0,0,.41.36,1.37,1.37,0,0,0,.25-.15c.5-.46,3.25-3.18,3.64-3.56s.58-.44,1,0a13.36,13.36,0,0,0,1.1,1.16.8.8,0,0,1,.34.44L195.8,209A1.46,1.46,0,0,1,194.94,208.44Z"/><circle class="cls-2" cx="132.97" cy="132.97" r="131.47"/><path class="cls-1" d="M133,166.32a4.86,4.86,0,0,1-3.51-1.49l-21.58-22.31a17.38,17.38,0,0,1-4.8-12.81A17.12,17.12,0,0,1,109,117.42c6.47-5.6,16.45-4.93,22.72,1.54l1.25,1.29,1.26-1.29c6.27-6.47,16.25-7.14,22.72-1.54a17.12,17.12,0,0,1,5.92,12.29,17.39,17.39,0,0,1-4.81,12.81l-21.58,22.31a4.86,4.86,0,0,1-3.51,1.49Zm-13.68-50a13,13,0,0,0-8.57,3.1,14.48,14.48,0,0,0-5,10.41,14.71,14.71,0,0,0,4.07,10.86L131.35,163a2.26,2.26,0,0,0,1.62.69h0a2.26,2.26,0,0,0,1.62-.69l21.57-22.31a14.76,14.76,0,0,0,4.08-10.86,14.48,14.48,0,0,0-5-10.41c-5.33-4.62-13.9-4-19.11,1.37L133,124l-3.14-3.25A14.75,14.75,0,0,0,119.29,116.32Z"/><path class="cls-3" d="M119.29,116.32a13,13,0,0,0-8.57,3.1,14.48,14.48,0,0,0-5,10.41,14.71,14.71,0,0,0,4.07,10.86L131.35,163a2.26,2.26,0,0,0,1.62.69h0a2.26,2.26,0,0,0,1.62-.69l21.57-22.31a14.76,14.76,0,0,0,4.08-10.86,14.48,14.48,0,0,0-5-10.41c-5.33-4.62-13.9-4-19.11,1.37L133,124l-3.14-3.25A14.75,14.75,0,0,0,119.29,116.32Z"/></g></g></svg>